<svg width="37" height="38" viewBox="0 0 37 38" fill="none" xmlns="http://www.w3.org/2000/svg">
<path d="M31.1834 0.00213623H5.78979C2.82913 0.00213623 0.5 2.45478 0.5 5.57859V32.3722C0.5 35.496 2.82913 38.0021 5.78979 38.0021H31.1834C34.144 38.0021 36.5 35.496 36.5 32.3722V5.57859C36.5 2.45478 34.144 0.00213623 31.1834 0.00213623ZM33.4434 32.3722C33.4434 33.6585 32.4025 34.7053 31.1834 34.7053H5.78979C4.57072 34.7053 3.5566 33.6585 3.5566 32.3722V5.57859C3.5566 4.29232 4.57072 3.29894 5.78979 3.29894H31.1834C32.4025 3.29894 33.4434 4.29232 33.4434 5.57859V32.3722Z" fill="#025829"/>
<path d="M27.4802 13.5359H15.6879C14.8158 13.5359 14.1087 14.1772 14.1087 15.0975C14.1087 16.0179 14.8156 16.6592 15.6879 16.6592H27.4802C28.3523 16.6592 29.0594 16.0179 29.0594 15.0975C29.0594 14.1772 28.3523 13.5359 27.4802 13.5359Z" fill="#025829"/>
<path d="M9.82136 16.7704C10.6936 16.7704 11.4006 16.0243 11.4006 15.1041C11.4006 14.1838 10.6936 13.4378 9.82136 13.4378C8.94916 13.4378 8.24211 14.1838 8.24211 15.1041C8.24211 16.0243 8.94916 16.7704 9.82136 16.7704Z" fill="#025829"/>
<path d="M27.4802 19.9557H15.6879C14.8158 19.9557 14.1087 20.684 14.1087 21.6042C14.1087 22.5243 14.8156 23.2526 15.6879 23.2526H27.4802C28.3523 23.2526 29.0594 22.5243 29.0594 21.6042C29.0594 20.684 28.3523 19.9557 27.4802 19.9557Z" fill="#025829"/>
<path d="M9.82136 23.3235C10.6936 23.3235 11.4006 22.5774 11.4006 21.6572C11.4006 20.7369 10.6936 19.9909 9.82136 19.9909C8.94916 19.9909 8.24211 20.7369 8.24211 21.6572C8.24211 22.5774 8.94916 23.3235 9.82136 23.3235Z" fill="#025829"/>
<path d="M27.4802 26.5496H15.6879C14.8158 26.5496 14.1087 27.2779 14.1087 28.198C14.1087 29.1182 14.8156 29.8464 15.6879 29.8464H27.4802C28.3523 29.8464 29.0594 29.1182 29.0594 28.198C29.0594 27.2779 28.3523 26.5496 27.4802 26.5496Z" fill="#025829"/>
<path d="M9.82136 29.8784C10.6936 29.8784 11.4006 29.1324 11.4006 28.2122C11.4006 27.2919 10.6936 26.5459 9.82136 26.5459C8.94916 26.5459 8.24211 27.2919 8.24211 28.2122C8.24211 29.1324 8.94916 29.8784 9.82136 29.8784Z" fill="#025829"/>
<path d="M27.48 6.94202H9.1263C8.25415 6.94202 7.54706 7.67009 7.54706 8.59042C7.54706 9.51075 8.25398 10.2388 9.1263 10.2388H27.4802C28.3523 10.2388 29.0594 9.51075 29.0594 8.59042C29.0593 7.67009 28.3522 6.94202 27.48 6.94202Z" fill="#025829"/>
</svg>
