<svg version="1.1" id="Layer_1" xmlns="http://www.w3.org/2000/svg" xmlns:xlink="http://www.w3.org/1999/xlink" x="0px" y="0px"
	 width="100%" viewBox="0 0 1266 1270" enable-background="new 0 0 1266 1270" xml:space="preserve">
<path fill="#FFFFFF" opacity="1.000000" stroke="none" 
	d="
M1.000000,1269.000000 
	C1.000000,848.300598 1.000000,427.601196 1.468657,6.451201 
	C419.738037,6.000480 837.538757,6.000365 1255.339478,6.000339 
	C1256.672729,6.000339 1258.014404,6.099093 1259.337402,5.983111 
	C1262.629028,5.694559 1263.843628,7.500127 1263.968140,10.430898 
	C1264.031860,11.928251 1263.994385,13.430107 1263.994385,14.929926 
	C1263.995117,429.564301 1263.995117,844.198669 1263.994995,1258.833008 
	C1263.994995,1268.539673 1263.542847,1268.994995 1253.902344,1268.994995 
	C836.268250,1268.996704 418.634125,1268.998413 1.000000,1269.000000 
M817.780518,720.049988 
	C821.861755,717.386353 825.943054,714.722656 830.686340,711.914612 
	C832.139282,710.646606 833.592163,709.378540 835.686829,707.844116 
	C837.806824,706.266235 839.926819,704.688354 842.696350,702.831360 
	C848.233765,698.916504 853.771118,695.001648 860.108643,690.521057 
	C860.108643,703.889648 860.108643,716.440125 859.931702,729.914612 
	C859.926514,738.886658 859.853088,747.859375 859.934692,756.830627 
	C860.021973,766.438232 860.255127,776.044617 859.626404,785.528198 
	C855.132812,785.508911 850.636230,785.377441 846.146179,785.494385 
	C837.550293,785.718140 832.209656,791.098145 832.183167,799.721375 
	C832.114258,822.189758 831.862183,844.663879 832.275330,867.124817 
	C832.513245,880.056580 838.870117,889.768127 850.367310,896.081848 
	C859.527466,901.112122 869.445435,900.351807 879.149170,899.741394 
	C896.330933,898.660522 909.849670,884.059082 909.964844,866.973145 
	C910.116333,844.505615 910.045593,822.036194 909.981201,799.567810 
	C909.956665,791.000061 904.559143,785.711914 895.893372,785.472900 
	C891.247681,785.344788 886.601074,785.248718 881.999634,784.246460 
	C882.250244,766.490356 882.500854,748.734314 882.896484,730.054016 
	C882.896484,717.151489 882.896484,704.249023 882.896484,690.750244 
	C889.375061,695.489014 895.188904,699.741455 901.363464,704.559021 
	C905.132019,707.080566 908.900635,709.602112 913.063293,712.699768 
	C929.523804,723.449585 946.817505,732.502075 965.642151,738.410339 
	C988.104736,745.460449 1010.842041,747.370544 1033.932861,741.843445 
	C1045.218262,739.142029 1049.939453,729.766663 1043.918823,719.922424 
	C1040.029175,713.562439 1034.099731,708.449768 1028.796631,702.187683 
	C1013.655823,690.217590 998.514954,678.247559 983.857971,666.660034 
	C994.496521,663.832397 1005.704834,661.378906 1016.568970,657.862061 
	C1043.507935,649.141602 1067.287476,635.361267 1084.838135,612.486755 
	C1086.940552,609.746643 1088.578247,606.056641 1088.895752,602.663208 
	C1089.567749,595.481873 1084.514038,589.308533 1075.226929,587.326172 
	C1064.718140,585.083130 1053.908569,583.368652 1043.196655,583.164246 
	C1027.120728,582.857544 1011.015930,584.066040 995.120544,584.623291 
	C1001.530457,574.447205 1008.281799,563.729187 1015.578430,552.617065 
	C1022.882568,537.168823 1030.983398,522.036865 1037.276489,506.187195 
	C1044.161255,488.847412 1046.740723,470.470703 1044.418701,451.748810 
	C1043.254272,442.360229 1036.150146,438.029144 1027.079346,440.824646 
	C1024.084717,441.747528 1021.152710,443.041077 1018.395203,444.539032 
	C995.308228,457.080688 974.671570,473.095245 954.616089,489.900665 
	C948.052734,495.400391 941.732544,501.190369 935.229126,506.910980 
	C934.918213,506.348785 934.790039,506.219452 934.778931,506.080719 
	C934.699463,505.089203 934.607788,504.096527 934.585815,503.102783 
	C933.436768,451.170197 916.337463,405.454010 881.452271,366.655884 
	C875.311768,359.826630 867.870605,359.510498 861.701599,366.304504 
	C832.646301,398.303314 815.354858,435.779877 810.039795,478.681946 
	C808.887085,487.985657 808.447815,497.377747 807.714783,506.304382 
	C793.223083,494.452637 779.166565,481.934570 764.039185,470.882324 
	C749.848694,460.514526 734.931396,450.966431 719.570862,442.430939 
	C707.511047,435.729523 698.750793,441.760193 697.981384,455.507050 
	C695.955505,491.701141 709.586792,523.087524 727.949646,553.777832 
	C728.876770,555.344116 729.749695,556.945618 730.739868,558.471008 
	C736.483582,567.319092 742.254822,576.149353 747.789185,585.168274 
	C747.789185,585.168274 747.558044,585.346375 746.727844,585.532593 
	C725.532959,582.681152 704.254517,581.575623 683.001343,584.238953 
	C675.696533,585.154358 668.195679,587.020264 661.556030,590.109985 
	C652.687378,594.237122 651.152039,603.806519 657.096069,611.516052 
	C659.935425,615.198853 662.919434,618.809021 666.162720,622.135376 
	C686.548584,643.043457 712.011597,654.662781 739.773315,661.942749 
	C746.356628,663.669067 753.044250,664.997803 760.482910,666.691345 
	C756.814758,669.158813 753.802124,670.938538 751.063049,673.069885 
	C738.219604,683.063965 725.451477,693.154724 712.037476,703.540588 
	C709.693054,706.031189 707.348633,708.521790 704.417603,711.333191 
	C702.583374,713.868042 700.474976,716.250305 698.963928,718.965027 
	C693.448120,728.874512 697.180786,738.323120 707.870911,741.748901 
	C710.525330,742.599487 713.288818,743.109558 716.776123,744.038879 
	C735.488403,748.065491 753.860413,746.378113 772.739868,740.720398 
	C788.359680,735.687134 803.300842,729.188416 817.780518,720.049988 
M699.500000,821.829773 
	C689.415894,821.829773 679.331787,821.829773 669.344360,821.829773 
	C669.344360,829.247253 669.344360,835.978821 669.344360,843.083862 
	C680.795898,843.083862 691.903625,843.083862 703.171021,843.083862 
	C703.398743,850.873657 701.192932,857.487854 697.159729,863.642090 
	C685.291077,881.752625 646.892578,884.630188 632.339539,859.049805 
	C622.567078,841.872314 622.110718,823.425598 626.741455,804.807983 
	C631.302551,786.470398 644.232178,774.705322 660.437256,773.091797 
	C675.236206,771.618225 692.366028,775.612732 700.179382,796.176697 
	C700.499695,797.019775 701.753296,798.057556 702.587585,798.071350 
	C711.035706,798.211304 719.487061,798.156738 728.850464,798.156738 
	C727.182312,792.993713 726.171875,788.422302 724.279358,784.251099 
	C714.594238,762.903992 697.232483,751.768127 674.573975,749.143921 
	C648.523315,746.126831 626.391724,754.052795 610.876892,776.089539 
	C597.504883,795.082764 595.271973,816.705566 597.863220,839.136108 
	C602.433167,878.695557 629.310364,903.014954 668.838745,901.780334 
	C714.312012,900.360046 735.007507,866.549500 728.915466,821.829773 
	C719.471558,821.829773 709.985779,821.829773 699.500000,821.829773 
M939.009644,848.593506 
	C943.838196,865.654175 948.666687,882.714844 953.539917,899.933594 
	C961.619446,899.933594 969.271973,899.769836 976.911743,900.010254 
	C980.180725,900.113159 981.411926,899.042786 982.267639,895.861694 
	C988.052002,874.358643 994.082397,852.921753 1000.064392,831.472107 
	C1000.741211,829.045166 1001.612671,826.672424 1002.393860,824.274597 
	C1003.927246,825.996948 1004.519226,827.646301 1004.987488,829.330017 
	C1011.132507,851.423523 1017.327820,873.503601 1023.318298,895.638977 
	C1024.208496,898.928406 1025.471436,900.235596 1029.047974,900.030884 
	C1035.192871,899.679321 1041.380249,899.748535 1047.534302,900.007629 
	C1050.880615,900.148560 1052.356567,899.329651 1053.325317,895.781921 
	C1059.496704,873.181824 1066.012451,850.675720 1072.410522,828.137512 
	C1076.167969,814.901672 1079.917236,801.663574 1083.812744,787.923218 
	C1075.840332,787.923218 1068.359619,788.100708 1060.894043,787.843140 
	C1057.512939,787.726562 1056.490356,788.959045 1055.728271,792.141052 
	C1050.232056,815.091064 1044.480347,837.979919 1038.790283,860.883362 
	C1038.359375,862.617371 1037.778687,864.314270 1037.267700,866.028381 
	C1035.893799,864.165466 1035.422729,862.577271 1035.009399,860.974243 
	C1029.072021,837.953613 1023.172729,814.923035 1017.140015,791.927429 
	C1016.754944,790.459595 1015.391052,788.146118 1014.412659,788.109802 
	C1006.138550,787.803040 997.848206,787.934692 989.606689,787.934692 
	C982.827759,814.375610 976.190674,840.263245 969.553589,866.150940 
	C969.151001,866.094849 968.748352,866.038818 968.345764,865.982727 
	C961.823181,839.971375 955.300659,813.960083 948.820496,788.117981 
	C939.556274,788.117981 930.922119,788.117981 921.882141,788.117981 
	C927.597473,808.200317 933.231384,827.996399 939.009644,848.593506 
M495.720734,873.500061 
	C495.720673,857.181763 495.786652,840.863159 495.701538,824.545349 
	C495.620056,808.924622 489.102112,797.030579 474.287903,791.104553 
	C456.786713,784.103577 439.144379,784.347168 422.129944,792.938171 
	C412.194550,797.954773 405.884827,806.173584 402.782990,817.378662 
	C409.675446,818.339905 416.112274,819.004517 422.445190,820.213623 
	C425.902435,820.873657 427.565857,820.144592 429.414093,816.916992 
	C435.223663,806.771912 453.091980,803.188293 462.657227,809.824524 
	C467.564575,813.229004 470.468262,820.422424 468.943359,826.152588 
	C467.536896,831.437622 462.705811,831.444885 458.556366,832.334106 
	C456.935822,832.681458 455.259644,832.760498 453.624359,833.049622 
	C442.357574,835.041199 430.689758,835.813416 419.916290,839.325500 
	C398.407349,846.337585 391.873871,872.953308 406.333740,890.310730 
	C418.829956,905.310974 453.591858,907.518127 466.774384,888.694641 
	C467.636688,887.463318 468.609131,886.309143 469.530304,885.119019 
	C469.852753,885.257568 470.175171,885.396057 470.497620,885.534607 
	C470.497620,890.274292 470.497620,895.014038 470.497620,899.650024 
	C479.085114,899.650024 487.177307,899.650024 495.720612,899.650024 
	C495.720612,891.077576 495.720612,882.788818 495.720734,873.500061 
M284.284851,875.180969 
	C288.031006,880.017456 291.137085,885.576477 295.636536,889.562683 
	C313.132874,905.063293 345.995667,906.456787 365.121338,892.975220 
	C373.089722,887.358398 378.388428,879.898010 380.676025,869.851135 
	C372.303925,868.891846 364.402802,867.986511 356.614288,867.094055 
	C348.709320,880.109436 336.635193,884.596069 322.331787,880.014282 
	C310.867859,876.342041 303.374939,864.496216 304.363129,850.921753 
	C330.163513,850.921753 356.015839,850.921753 382.430328,850.921753 
	C381.913239,843.318604 381.997742,836.271851 380.861908,829.427551 
	C377.558411,809.521362 367.476288,794.607910 347.253326,788.944153 
	C326.367798,783.094666 306.658112,785.908691 292.104187,803.135498 
	C273.891022,824.693481 274.188690,849.277222 284.284851,875.180969 
M175.575333,899.946411 
	C203.670746,899.946411 231.766159,899.946411 259.815430,899.946411 
	C259.815430,892.100525 259.815430,884.725342 259.815430,876.852295 
	C237.872787,876.852295 216.321243,876.852295 194.270172,876.852295 
	C194.270172,834.465393 194.270172,792.589233 194.270172,750.819702 
	C185.012222,750.819702 176.270432,750.819702 167.518494,750.819702 
	C167.518494,800.611572 167.518494,850.015320 167.518494,899.946411 
	C170.034302,899.946411 172.319305,899.946411 175.575333,899.946411 
M529.330383,899.026611 
	C537.993225,899.461365 546.656128,899.896179 556.005676,900.365479 
	C556.005676,869.106323 556.005676,838.761658 556.005676,808.049683 
	C563.930237,808.049683 571.197327,808.049683 578.552734,808.049683 
	C578.552734,801.137939 578.552734,794.610901 578.552734,787.764160 
	C570.887939,787.764160 563.605957,787.764160 556.383789,787.764160 
	C553.487793,768.702148 558.326904,764.220459 579.179443,766.584900 
	C580.851318,760.073120 582.533142,753.522888 584.319031,746.567383 
	C570.583740,742.805664 557.319946,741.369873 544.702454,748.321716 
	C529.061829,756.939087 528.590088,772.181885 529.201050,788.043274 
	C523.457886,788.043274 518.234192,788.043274 513.155396,788.043274 
	C513.155396,795.048462 513.155396,801.463806 513.155396,808.306885 
	C518.566711,808.306885 523.658020,808.306885 529.178711,808.306885 
	C529.178711,838.532654 529.178711,868.318665 529.330383,899.026611 
M754.660400,812.499817 
	C754.660400,841.561340 754.660400,870.622925 754.660400,899.671631 
	C763.765442,899.671631 772.187744,899.671631 781.003174,899.671631 
	C781.003174,897.618652 781.003174,895.824097 781.003174,894.029541 
	C781.003235,874.220947 780.961548,854.412292 781.017151,834.603882 
	C781.057861,820.088196 790.824829,810.132629 805.344543,809.909546 
	C809.612610,809.843994 813.890198,810.392456 818.299194,810.668030 
	C818.299194,802.816528 818.299194,795.058655 818.299194,787.030396 
	C801.088013,784.224731 788.118042,789.223389 780.204712,805.746033 
	C780.204712,799.915466 780.204712,794.084839 780.204712,788.252930 
	C771.372437,788.252930 763.166077,788.252930 754.660706,788.252930 
	C754.660706,796.218201 754.660706,803.858948 754.660400,812.499817 
z"/>
<path fill="#F5F5F5" opacity="1.000000" stroke="none" 
	d="
M0.999991,1269.500000 
	C418.634125,1268.998413 836.268250,1268.996704 1253.902344,1268.994995 
	C1263.542847,1268.994995 1263.994995,1268.539673 1263.994995,1258.833008 
	C1263.995117,844.198669 1263.995117,429.564301 1263.994385,14.929926 
	C1263.994385,13.430107 1264.031860,11.928251 1263.968140,10.430898 
	C1263.843628,7.500127 1262.629028,5.694559 1259.337402,5.983111 
	C1258.014404,6.099093 1256.672729,6.000339 1255.339478,6.000339 
	C837.538757,6.000365 419.738037,6.000480 1.468657,6.000297 
	C1.000000,4.333552 1.000000,2.667104 1.000000,1.000492 
	C422.944366,1.000328 844.888733,1.000328 1266.916504,1.000328 
	C1266.916504,424.222168 1266.916504,847.444336 1266.916504,1271.000000 
	C1264.955444,1271.000000 1262.894897,1271.000000 1260.834351,1271.000000 
	C842.389282,1271.000000 423.944214,1271.001099 5.499146,1270.958862 
	C3.999380,1270.958618 2.499696,1270.333374 0.999991,1269.500000 
z"/>
<path fill="#3B6D4A" opacity="1.000000" stroke="none" 
	d="
M727.809570,553.080139 
	C709.586792,523.087524 695.955505,491.701141 697.981384,455.507050 
	C698.750793,441.760193 707.511047,435.729523 719.570862,442.430939 
	C734.931396,450.966431 749.848694,460.514526 764.039185,470.882324 
	C779.166565,481.934570 793.223083,494.452637 807.714783,506.304382 
	C808.447815,497.377747 808.887085,487.985657 810.039795,478.681946 
	C815.354858,435.779877 832.646301,398.303314 861.701599,366.304504 
	C867.870605,359.510498 875.311768,359.826630 881.452271,366.655884 
	C916.337463,405.454010 933.436768,451.170197 934.585815,503.102783 
	C934.607788,504.096527 934.699463,505.089203 934.778931,506.080719 
	C934.790039,506.219452 934.918213,506.348785 935.229126,506.910980 
	C941.732544,501.190369 948.052734,495.400391 954.616089,489.900665 
	C974.671570,473.095245 995.308228,457.080688 1018.395203,444.539032 
	C1021.152710,443.041077 1024.084717,441.747528 1027.079346,440.824646 
	C1036.150146,438.029144 1043.254272,442.360229 1044.418701,451.748810 
	C1046.740723,470.470703 1044.161255,488.847412 1037.276489,506.187195 
	C1030.983398,522.036865 1022.882568,537.168823 1014.960754,552.762573 
	C1013.462158,551.978699 1012.474304,551.128357 1011.718872,550.106262 
	C1008.448303,545.681030 1005.595886,544.780396 1000.811646,547.133911 
	C998.484375,548.278809 996.430359,549.967407 994.148438,551.219971 
	C992.194946,552.292297 990.092834,553.093811 988.108887,553.673584 
	C1009.061401,520.927490 1023.565857,484.252838 1021.256409,469.115875 
	C1016.419067,472.307098 1011.645447,475.308990 1007.023987,478.529236 
	C979.339966,497.819611 953.608826,519.356934 931.115356,544.619080 
	C927.173828,549.045776 922.480957,550.224915 917.632751,548.345825 
	C912.967957,546.537781 910.100708,542.200012 910.050049,536.532532 
	C910.026306,533.875977 910.264832,531.209839 910.506531,528.559143 
	C913.357788,497.291351 910.492981,466.744293 898.903809,437.325989 
	C892.228577,420.381500 883.232849,404.785217 871.236267,390.181244 
	C870.516296,391.185791 870.052490,391.882385 869.539795,392.540863 
	C847.368896,421.018738 834.564087,453.281403 832.169678,489.233063 
	C831.167969,504.272430 832.490967,519.470215 832.835510,534.594116 
	C832.989380,541.347778 830.596924,545.971436 825.556702,548.135559 
	C820.315674,550.385986 815.564880,549.023621 810.951599,543.838745 
	C790.153748,520.464172 766.408997,500.428925 741.037964,482.257294 
	C734.660400,477.689423 728.032410,473.471191 720.750061,468.574951 
	C721.689026,482.027802 724.227661,494.013000 729.403137,504.980286 
	C737.253113,521.615234 746.282593,537.693542 754.453491,554.000916 
	C749.434570,551.344910 744.801392,548.644653 740.102051,546.064941 
	C736.723083,544.209961 733.914673,544.534363 731.806152,548.245178 
	C730.788757,550.035706 729.160950,551.479370 727.809570,553.080139 
z"/>
<path fill="#386A47" opacity="1.000000" stroke="none" 
	d="
M988.056396,554.015137 
	C990.092834,553.093811 992.194946,552.292297 994.148438,551.219971 
	C996.430359,549.967407 998.484375,548.278809 1000.811646,547.133911 
	C1005.595886,544.780396 1008.448303,545.681030 1011.718872,550.106262 
	C1012.474304,551.128357 1013.462158,551.978699 1014.688110,552.959595 
	C1008.281799,563.729187 1001.530457,574.447205 995.120544,584.623291 
	C1011.015930,584.066040 1027.120728,582.857544 1043.196655,583.164246 
	C1053.908569,583.368652 1064.718140,585.083130 1075.226929,587.326172 
	C1084.514038,589.308533 1089.567749,595.481873 1088.895752,602.663208 
	C1088.578247,606.056641 1086.940552,609.746643 1084.838135,612.486755 
	C1067.287476,635.361267 1043.507935,649.141602 1016.568970,657.862061 
	C1005.704834,661.378906 994.496521,663.832397 983.857971,666.660034 
	C998.514954,678.247559 1013.655823,690.217590 1028.921021,702.878174 
	C1029.786987,705.574158 1030.436523,707.619629 1031.285278,709.578674 
	C1036.718750,722.119629 1034.125610,733.174438 1023.764282,737.897339 
	C1018.757935,740.179321 1012.964355,741.679626 1007.490356,741.795715 
	C995.716187,742.045532 984.347473,738.756409 974.063293,733.320862 
	C960.607117,726.208862 947.806641,717.861267 934.648560,710.174561 
	C932.770447,709.077393 930.322266,707.841003 928.389709,708.166138 
	C923.077942,709.059570 917.900024,710.749084 912.669189,712.123657 
	C908.900635,709.602112 905.132019,707.080566 901.383789,703.999634 
	C906.598022,699.036072 907.395813,695.510925 903.688965,690.239807 
	C900.857056,686.212830 897.909668,682.037415 894.181946,678.923645 
	C888.526123,674.199341 882.583557,669.576721 874.640503,668.971985 
	C859.599976,667.827148 849.628418,675.994873 841.581177,687.191589 
	C836.643616,694.061829 837.069214,696.504333 842.046875,703.110474 
	C839.926819,704.688354 837.806824,706.266235 835.220520,707.663208 
	C827.160889,699.028137 827.170532,694.601929 834.403076,686.024292 
	C837.406982,682.461853 840.010315,678.561584 842.807495,674.832886 
	C842.819214,674.850830 842.793823,674.834900 843.181580,674.880737 
	C845.920593,673.833984 848.459412,673.022888 850.592102,671.602234 
	C863.218872,663.190796 876.031921,661.400208 889.443665,669.811523 
	C890.182434,670.274841 891.778992,669.370422 893.301270,669.182861 
	C895.924438,671.182617 898.192505,673.139648 900.525513,675.015991 
	C923.358521,693.379089 947.658081,709.044861 976.044800,717.705322 
	C988.768311,721.587158 1001.537231,722.579773 1014.608398,721.682007 
	C1014.608398,720.937195 1014.744812,720.468567 1014.587769,720.328186 
	C1012.363953,718.339905 1010.132263,716.357788 1007.841187,714.447632 
	C987.855652,697.785400 966.995422,682.420044 943.325500,671.269470 
	C937.288879,668.425720 934.367249,664.038635 935.079651,658.470947 
	C935.778137,653.012085 939.949097,648.943665 946.238647,647.996277 
	C959.892517,645.939636 973.678040,644.585876 987.210144,641.928711 
	C1012.673462,636.928650 1036.418579,627.803894 1056.103027,610.109924 
	C1056.963379,609.336548 1057.654907,608.375305 1058.658813,607.236267 
	C1036.370728,604.206238 1012.344910,605.799988 977.039429,612.148926 
	C973.329773,605.919495 968.640991,600.509949 968.573242,593.112671 
	C968.535889,589.039062 968.818420,584.962463 969.049866,580.562988 
	C975.447449,571.497498 981.751953,562.756348 988.056396,554.015137 
z"/>
<path fill="#386B47" opacity="1.000000" stroke="none" 
	d="
M842.795776,674.814941 
	C840.010315,678.561584 837.406982,682.461853 834.403076,686.024292 
	C827.170532,694.601929 827.160889,699.028137 834.899658,707.796387 
	C833.592163,709.378540 832.139282,710.646606 830.146729,711.694458 
	C825.724792,710.032532 821.937317,708.073792 817.925537,707.337036 
	C815.397888,706.872925 812.151611,707.584839 809.894531,708.907288 
	C803.626282,712.579956 797.722778,716.872131 791.646179,720.875610 
	C777.717712,730.052002 763.353394,738.270203 746.718689,741.618103 
	C735.957458,743.783936 725.722046,742.872559 716.139282,737.095947 
	C711.376282,734.224670 706.980957,726.120056 708.827393,718.965210 
	C710.177612,713.732849 711.385254,708.463745 712.656494,703.210999 
	C725.451477,693.154724 738.219604,683.063965 751.063049,673.069885 
	C753.802124,670.938538 756.814758,669.158813 760.482910,666.691345 
	C753.044250,664.997803 746.356628,663.669067 739.773315,661.942749 
	C712.011597,654.662781 686.548584,643.043457 666.162720,622.135376 
	C662.919434,618.809021 659.935425,615.198853 657.096069,611.516052 
	C651.152039,603.806519 652.687378,594.237122 661.556030,590.109985 
	C668.195679,587.020264 675.696533,585.154358 683.001343,584.238953 
	C704.254517,581.575623 725.532959,582.681152 747.293457,585.613037 
	C748.139526,585.628113 748.419983,585.562683 748.700439,585.497314 
	C748.472534,585.326782 748.244690,585.156189 748.016785,584.985657 
	C742.254822,576.149353 736.483582,567.319092 730.739868,558.471008 
	C729.749695,556.945618 728.876770,555.344116 727.879639,553.428955 
	C729.160950,551.479370 730.788757,550.035706 731.806152,548.245178 
	C733.914673,544.534363 736.723083,544.209961 740.102051,546.064941 
	C744.801392,548.644653 749.434570,551.344910 754.693542,554.250061 
	C761.980164,563.952271 768.669250,573.397949 775.019287,583.082153 
	C774.509460,585.237244 774.107971,587.165771 774.207092,589.068237 
	C774.686340,598.268433 771.640747,605.966553 764.359253,612.136047 
	C737.770203,606.271057 711.364258,604.185425 683.847839,607.126892 
	C685.083191,608.466492 685.608215,609.091919 686.192383,609.656067 
	C687.029297,610.464294 687.886353,611.255127 688.774536,612.006348 
	C711.135071,630.918640 737.865173,639.337708 766.105042,643.956604 
	C776.275208,645.620056 786.560303,646.568787 796.760071,648.067688 
	C802.929932,648.974365 807.054443,653.200623 807.753784,658.694275 
	C808.364502,663.491638 805.586914,668.593201 800.689880,670.811646 
	C774.824280,682.529297 752.397583,699.371460 730.774475,717.438599 
	C729.187805,718.764404 727.387268,719.834351 725.113037,721.423889 
	C734.996277,725.867859 743.177551,723.745850 751.070984,722.325195 
	C776.906616,717.675415 799.567078,705.660339 820.857056,690.813416 
	C828.279297,685.637390 835.489014,680.156555 842.795776,674.814941 
z"/>
<path fill="#484E4A" opacity="1.000000" stroke="none" 
	d="
M700.000000,821.829773 
	C709.985779,821.829773 719.471558,821.829773 728.915466,821.829773 
	C735.007507,866.549500 714.312012,900.360046 668.838745,901.780334 
	C629.310364,903.014954 602.433167,878.695557 597.863220,839.136108 
	C595.271973,816.705566 597.504883,795.082764 610.876892,776.089539 
	C626.391724,754.052795 648.523315,746.126831 674.573975,749.143921 
	C697.232483,751.768127 714.594238,762.903992 724.279358,784.251099 
	C726.171875,788.422302 727.182312,792.993713 728.850464,798.156738 
	C719.487061,798.156738 711.035706,798.211304 702.587585,798.071350 
	C701.753296,798.057556 700.499695,797.019775 700.179382,796.176697 
	C692.366028,775.612732 675.236206,771.618225 660.437256,773.091797 
	C644.232178,774.705322 631.302551,786.470398 626.741455,804.807983 
	C622.110718,823.425598 622.567078,841.872314 632.339539,859.049805 
	C646.892578,884.630188 685.291077,881.752625 697.159729,863.642090 
	C701.192932,857.487854 703.398743,850.873657 703.171021,843.083862 
	C691.903625,843.083862 680.795898,843.083862 669.344360,843.083862 
	C669.344360,835.978821 669.344360,829.247253 669.344360,821.829773 
	C679.331787,821.829773 689.415894,821.829773 700.000000,821.829773 
z"/>
<path fill="#3A403C" opacity="1.000000" stroke="none" 
	d="
M938.937500,848.192993 
	C933.231384,827.996399 927.597473,808.200317 921.882141,788.117981 
	C930.922119,788.117981 939.556274,788.117981 948.820496,788.117981 
	C955.300659,813.960083 961.823181,839.971375 968.345764,865.982727 
	C968.748352,866.038818 969.151001,866.094849 969.553589,866.150940 
	C976.190674,840.263245 982.827759,814.375610 989.606689,787.934692 
	C997.848206,787.934692 1006.138550,787.803040 1014.412659,788.109802 
	C1015.391052,788.146118 1016.754944,790.459595 1017.140015,791.927429 
	C1023.172729,814.923035 1029.072021,837.953613 1035.009399,860.974243 
	C1035.422729,862.577271 1035.893799,864.165466 1037.267700,866.028381 
	C1037.778687,864.314270 1038.359375,862.617371 1038.790283,860.883362 
	C1044.480347,837.979919 1050.232056,815.091064 1055.728271,792.141052 
	C1056.490356,788.959045 1057.512939,787.726562 1060.894043,787.843140 
	C1068.359619,788.100708 1075.840332,787.923218 1083.812744,787.923218 
	C1079.917236,801.663574 1076.167969,814.901672 1072.410522,828.137512 
	C1066.012451,850.675720 1059.496704,873.181824 1053.325317,895.781921 
	C1052.356567,899.329651 1050.880615,900.148560 1047.534302,900.007629 
	C1041.380249,899.748535 1035.192871,899.679321 1029.047974,900.030884 
	C1025.471436,900.235596 1024.208496,898.928406 1023.318298,895.638977 
	C1017.327820,873.503601 1011.132507,851.423523 1004.987488,829.330017 
	C1004.519226,827.646301 1003.927246,825.996948 1002.393860,824.274597 
	C1001.612671,826.672424 1000.741211,829.045166 1000.064392,831.472107 
	C994.082397,852.921753 988.052002,874.358643 982.267639,895.861694 
	C981.411926,899.042786 980.180725,900.113159 976.911743,900.010254 
	C969.271973,899.769836 961.619446,899.933594 953.539917,899.933594 
	C948.666687,882.714844 943.838196,865.654175 938.937500,848.192993 
z"/>
<path fill="#494F4B" opacity="1.000000" stroke="none" 
	d="
M495.720673,874.000122 
	C495.720612,882.788818 495.720612,891.077576 495.720612,899.650024 
	C487.177307,899.650024 479.085114,899.650024 470.497620,899.650024 
	C470.497620,895.014038 470.497620,890.274292 470.497620,885.534607 
	C470.175171,885.396057 469.852753,885.257568 469.530304,885.119019 
	C468.609131,886.309143 467.636688,887.463318 466.774384,888.694641 
	C453.591858,907.518127 418.829956,905.310974 406.333740,890.310730 
	C391.873871,872.953308 398.407349,846.337585 419.916290,839.325500 
	C430.689758,835.813416 442.357574,835.041199 453.624359,833.049622 
	C455.259644,832.760498 456.935822,832.681458 458.556366,832.334106 
	C462.705811,831.444885 467.536896,831.437622 468.943359,826.152588 
	C470.468262,820.422424 467.564575,813.229004 462.657227,809.824524 
	C453.091980,803.188293 435.223663,806.771912 429.414093,816.916992 
	C427.565857,820.144592 425.902435,820.873657 422.445190,820.213623 
	C416.112274,819.004517 409.675446,818.339905 402.782990,817.378662 
	C405.884827,806.173584 412.194550,797.954773 422.129944,792.938171 
	C439.144379,784.347168 456.786713,784.103577 474.287903,791.104553 
	C489.102112,797.030579 495.620056,808.924622 495.701538,824.545349 
	C495.786652,840.863159 495.720673,857.181763 495.720673,874.000122 
M445.268280,882.787964 
	C464.590332,880.177551 472.001862,869.041870 468.888550,847.762390 
	C462.403534,848.947632 455.885925,850.022827 449.421448,851.355713 
	C443.915253,852.491028 438.258789,853.371216 433.052521,855.365784 
	C426.775116,857.770752 424.220917,862.775391 424.613617,869.191101 
	C424.989441,875.331299 428.082703,879.353455 434.627136,881.308472 
	C437.758514,882.243896 441.138367,882.347656 445.268280,882.787964 
z"/>
<path fill="#484E4A" opacity="1.000000" stroke="none" 
	d="
M284.135193,874.838562 
	C274.188690,849.277222 273.891022,824.693481 292.104187,803.135498 
	C306.658112,785.908691 326.367798,783.094666 347.253326,788.944153 
	C367.476288,794.607910 377.558411,809.521362 380.861908,829.427551 
	C381.997742,836.271851 381.913239,843.318604 382.430328,850.921753 
	C356.015839,850.921753 330.163513,850.921753 304.363129,850.921753 
	C303.374939,864.496216 310.867859,876.342041 322.331787,880.014282 
	C336.635193,884.596069 348.709320,880.109436 356.614288,867.094055 
	C364.402802,867.986511 372.303925,868.891846 380.676025,869.851135 
	C378.388428,879.898010 373.089722,887.358398 365.121338,892.975220 
	C345.995667,906.456787 313.132874,905.063293 295.636536,889.562683 
	C291.137085,885.576477 288.031006,880.017456 284.135193,874.838562 
M322.220459,808.320984 
	C310.756866,813.327759 304.260590,822.287109 304.444244,832.865356 
	C321.804626,832.865356 339.162140,832.865356 356.544220,832.865356 
	C355.126617,813.504517 342.198792,804.112610 322.220459,808.320984 
z"/>
<path fill="#3A403C" opacity="1.000000" stroke="none" 
	d="
M881.954895,785.138245 
	C886.601074,785.248718 891.247681,785.344788 895.893372,785.472900 
	C904.559143,785.711914 909.956665,791.000061 909.981201,799.567810 
	C910.045593,822.036194 910.116333,844.505615 909.964844,866.973145 
	C909.849670,884.059082 896.330933,898.660522 879.149170,899.741394 
	C869.445435,900.351807 859.527466,901.112122 850.367310,896.081848 
	C838.870117,889.768127 832.513245,880.056580 832.275330,867.124817 
	C831.862183,844.663879 832.114258,822.189758 832.183167,799.721375 
	C832.209656,791.098145 837.550293,785.718140 846.146179,785.494385 
	C850.636230,785.377441 855.132812,785.508911 860.528564,785.680176 
	C868.272156,785.600769 875.113525,785.369507 881.954895,785.138245 
M886.759033,871.837646 
	C887.196960,869.415955 887.988464,866.997925 888.013428,864.572021 
	C888.141541,852.092651 888.072815,839.611206 888.072876,827.130493 
	C888.072876,820.682922 888.072937,814.235413 888.072937,807.588928 
	C876.546936,807.588928 865.499146,807.588928 854.266357,807.588928 
	C854.191956,809.180664 854.078308,810.483582 854.078003,811.786438 
	C854.073975,830.257690 853.933838,848.731018 854.180054,867.199097 
	C854.259766,873.176636 859.262878,877.626404 865.261841,877.955261 
	C868.414429,878.128052 871.588928,877.882507 874.744263,878.027100 
	C879.634705,878.251160 883.500061,876.513245 886.759033,871.837646 
z"/>
<path fill="#4B514D" opacity="1.000000" stroke="none" 
	d="
M175.089813,899.946411 
	C172.319305,899.946411 170.034302,899.946411 167.518494,899.946411 
	C167.518494,850.015320 167.518494,800.611572 167.518494,750.819702 
	C176.270432,750.819702 185.012222,750.819702 194.270172,750.819702 
	C194.270172,792.589233 194.270172,834.465393 194.270172,876.852295 
	C216.321243,876.852295 237.872787,876.852295 259.815430,876.852295 
	C259.815430,884.725342 259.815430,892.100525 259.815430,899.946411 
	C231.766159,899.946411 203.670746,899.946411 175.089813,899.946411 
z"/>
<path fill="#494E4B" opacity="1.000000" stroke="none" 
	d="
M529.254517,898.565674 
	C529.178711,868.318665 529.178711,838.532654 529.178711,808.306885 
	C523.658020,808.306885 518.566711,808.306885 513.155396,808.306885 
	C513.155396,801.463806 513.155396,795.048462 513.155396,788.043274 
	C518.234192,788.043274 523.457886,788.043274 529.201050,788.043274 
	C528.590088,772.181885 529.061829,756.939087 544.702454,748.321716 
	C557.319946,741.369873 570.583740,742.805664 584.319031,746.567383 
	C582.533142,753.522888 580.851318,760.073120 579.179443,766.584900 
	C558.326904,764.220459 553.487793,768.702148 556.383789,787.764160 
	C563.605957,787.764160 570.887939,787.764160 578.552734,787.764160 
	C578.552734,794.610901 578.552734,801.137939 578.552734,808.049683 
	C571.197327,808.049683 563.930237,808.049683 556.005676,808.049683 
	C556.005676,838.761658 556.005676,869.106323 556.005676,900.365479 
	C546.656128,899.896179 537.993225,899.461365 529.254517,898.565674 
z"/>
<path fill="#474D49" opacity="1.000000" stroke="none" 
	d="
M754.660522,811.999756 
	C754.660706,803.858948 754.660706,796.218201 754.660706,788.252930 
	C763.166077,788.252930 771.372437,788.252930 780.204712,788.252930 
	C780.204712,794.084839 780.204712,799.915466 780.204712,805.746033 
	C788.118042,789.223389 801.088013,784.224731 818.299194,787.030396 
	C818.299194,795.058655 818.299194,802.816528 818.299194,810.668030 
	C813.890198,810.392456 809.612610,809.843994 805.344543,809.909546 
	C790.824829,810.132629 781.057861,820.088196 781.017151,834.603882 
	C780.961548,854.412292 781.003235,874.220947 781.003174,894.029541 
	C781.003174,895.824097 781.003174,897.618652 781.003174,899.671631 
	C772.187744,899.671631 763.765442,899.671631 754.660400,899.671631 
	C754.660400,870.622925 754.660400,841.561340 754.660522,811.999756 
z"/>
<path fill="#356844" opacity="1.000000" stroke="none" 
	d="
M842.371582,702.970947 
	C837.069214,696.504333 836.643616,694.061829 841.581177,687.191589 
	C849.628418,675.994873 859.599976,667.827148 874.640503,668.971985 
	C882.583557,669.576721 888.526123,674.199341 894.181946,678.923645 
	C897.909668,682.037415 900.857056,686.212830 903.688965,690.239807 
	C907.395813,695.510925 906.598022,699.036072 901.203369,703.717041 
	C895.188904,699.741455 889.375061,695.489014 882.896484,690.750244 
	C882.896484,704.249023 882.896484,717.151489 882.442871,730.519775 
	C881.029907,731.176941 879.884216,731.095581 879.141052,731.603333 
	C873.698914,735.320984 868.597229,734.360291 863.551697,730.794739 
	C862.502869,730.053589 861.261353,729.584900 860.108643,728.990601 
	C860.108643,716.440125 860.108643,703.889648 860.108643,690.521057 
	C853.771118,695.001648 848.233765,698.916504 842.371582,702.970947 
z"/>
<path fill="#3A6D49" opacity="1.000000" stroke="none" 
	d="
M912.866211,712.411743 
	C917.900024,710.749084 923.077942,709.059570 928.389709,708.166138 
	C930.322266,707.841003 932.770447,709.077393 934.648560,710.174561 
	C947.806641,717.861267 960.607117,726.208862 974.063293,733.320862 
	C984.347473,738.756409 995.716187,742.045532 1007.490356,741.795715 
	C1012.964355,741.679626 1018.757935,740.179321 1023.764282,737.897339 
	C1034.125610,733.174438 1036.718750,722.119629 1031.285278,709.578674 
	C1030.436523,707.619629 1029.786987,705.574158 1029.064941,703.173340 
	C1034.099731,708.449768 1040.029175,713.562439 1043.918823,719.922424 
	C1049.939453,729.766663 1045.218262,739.142029 1033.932861,741.843445 
	C1010.842041,747.370544 988.104736,745.460449 965.642151,738.410339 
	C946.817505,732.502075 929.523804,723.449585 912.866211,712.411743 
z"/>
<path fill="#437352" opacity="1.000000" stroke="none" 
	d="
M860.020142,729.452637 
	C861.261353,729.584900 862.502869,730.053589 863.551697,730.794739 
	C868.597229,734.360291 873.698914,735.320984 879.141052,731.603333 
	C879.884216,731.095581 881.029907,731.176941 882.370361,730.981873 
	C882.500854,748.734314 882.250244,766.490356 881.977295,784.692383 
	C875.113525,785.369507 868.272156,785.600769 860.927673,785.741821 
	C860.255127,776.044617 860.021973,766.438232 859.934692,756.830627 
	C859.853088,747.859375 859.926514,738.886658 860.020142,729.452637 
z"/>
<path fill="#3A6D49" opacity="1.000000" stroke="none" 
	d="
M712.346985,703.375793 
	C711.385254,708.463745 710.177612,713.732849 708.827393,718.965210 
	C706.980957,726.120056 711.376282,734.224670 716.139282,737.095947 
	C725.722046,742.872559 735.957458,743.783936 746.718689,741.618103 
	C763.353394,738.270203 777.717712,730.052002 791.646179,720.875610 
	C797.722778,716.872131 803.626282,712.579956 809.894531,708.907288 
	C812.151611,707.584839 815.397888,706.872925 817.925537,707.337036 
	C821.937317,708.073792 825.724792,710.032532 829.815735,711.766724 
	C825.943054,714.722656 821.861755,717.386353 817.236328,719.839355 
	C815.283997,719.869690 813.734192,719.810974 812.489746,720.398743 
	C801.857666,725.420654 791.255066,730.507202 780.704041,735.697144 
	C777.700195,737.174805 774.894470,739.055237 771.997925,740.750977 
	C753.860413,746.378113 735.488403,748.065491 716.343140,743.576538 
	C714.714172,741.796936 713.715942,740.190796 712.287415,739.213623 
	C706.797424,735.458313 704.319336,730.073975 704.094727,723.736023 
	C703.945007,719.510803 704.670471,715.254700 705.004272,711.012390 
	C707.348633,708.521790 709.693054,706.031189 712.346985,703.375793 
z"/>
<path fill="#3B6E4A" opacity="1.000000" stroke="none" 
	d="
M704.710938,711.172791 
	C704.670471,715.254700 703.945007,719.510803 704.094727,723.736023 
	C704.319336,730.073975 706.797424,735.458313 712.287415,739.213623 
	C713.715942,740.190796 714.714172,741.796936 715.956177,743.445190 
	C713.288818,743.109558 710.525330,742.599487 707.870911,741.748901 
	C697.180786,738.323120 693.448120,728.874512 698.963928,718.965027 
	C700.474976,716.250305 702.583374,713.868042 704.710938,711.172791 
z"/>
<path fill="#3B6E4A" opacity="1.000000" stroke="none" 
	d="
M772.368896,740.735718 
	C774.894470,739.055237 777.700195,737.174805 780.704041,735.697144 
	C791.255066,730.507202 801.857666,725.420654 812.489746,720.398743 
	C813.734192,719.810974 815.283997,719.869690 816.887573,719.907654 
	C803.300842,729.188416 788.359680,735.687134 772.368896,740.735718 
z"/>
<path fill="#FEFEFE" opacity="1.000000" stroke="none" 
	d="
M775.358398,582.843628 
	C768.669250,573.397949 761.980164,563.952271 755.051025,554.257446 
	C746.282593,537.693542 737.253113,521.615234 729.403137,504.980286 
	C724.227661,494.013000 721.689026,482.027802 720.750061,468.574951 
	C728.032410,473.471191 734.660400,477.689423 741.037964,482.257294 
	C766.408997,500.428925 790.153748,520.464172 810.951599,543.838745 
	C815.564880,549.023621 820.315674,550.385986 825.556702,548.135559 
	C830.596924,545.971436 832.989380,541.347778 832.835510,534.594116 
	C832.490967,519.470215 831.167969,504.272430 832.169678,489.233063 
	C834.564087,453.281403 847.368896,421.018738 869.539795,392.540863 
	C870.052490,391.882385 870.516296,391.185791 871.236267,390.181244 
	C883.232849,404.785217 892.228577,420.381500 898.903809,437.325989 
	C910.492981,466.744293 913.357788,497.291351 910.506531,528.559143 
	C910.264832,531.209839 910.026306,533.875977 910.050049,536.532532 
	C910.100708,542.200012 912.967957,546.537781 917.632751,548.345825 
	C922.480957,550.224915 927.173828,549.045776 931.115356,544.619080 
	C953.608826,519.356934 979.339966,497.819611 1007.023987,478.529236 
	C1011.645447,475.308990 1016.419067,472.307098 1021.256409,469.115875 
	C1023.565857,484.252838 1009.061401,520.927490 988.108948,553.673584 
	C981.751953,562.756348 975.447449,571.497498 968.745605,580.712646 
	C964.422424,586.511719 960.279846,591.693970 956.641174,597.208618 
	C953.873108,601.403748 953.936584,606.066162 956.876221,610.271484 
	C959.973633,614.702454 964.473633,615.954468 969.606201,614.820312 
	C972.171204,614.253479 974.648804,613.291504 977.165955,612.508179 
	C1012.344910,605.799988 1036.370728,604.206238 1058.658813,607.236267 
	C1057.654907,608.375305 1056.963379,609.336548 1056.103027,610.109924 
	C1036.418579,627.803894 1012.673462,636.928650 987.210144,641.928711 
	C973.678040,644.585876 959.892517,645.939636 946.238647,647.996277 
	C939.949097,648.943665 935.778137,653.012085 935.079651,658.470947 
	C934.367249,664.038635 937.288879,668.425720 943.325500,671.269470 
	C966.995422,682.420044 987.855652,697.785400 1007.841187,714.447632 
	C1010.132263,716.357788 1012.363953,718.339905 1014.587769,720.328186 
	C1014.744812,720.468567 1014.608398,720.937195 1014.608398,721.682007 
	C1001.537231,722.579773 988.768311,721.587158 976.044800,717.705322 
	C947.658081,709.044861 923.358521,693.379089 900.525513,675.015991 
	C898.192505,673.139648 895.924438,671.182617 893.119690,668.901001 
	C889.739014,666.137207 886.864929,663.735413 883.800354,661.038452 
	C872.684509,651.274841 868.511230,651.345276 858.722656,661.260010 
	C853.203674,665.852966 847.998779,670.343933 842.793823,674.834900 
	C842.793823,674.834900 842.819214,674.850830 842.807495,674.832886 
	C835.489014,680.156555 828.279297,685.637390 820.857056,690.813416 
	C799.567078,705.660339 776.906616,717.675415 751.070984,722.325195 
	C743.177551,723.745850 734.996277,725.867859 725.113037,721.423889 
	C727.387268,719.834351 729.187805,718.764404 730.774475,717.438599 
	C752.397583,699.371460 774.824280,682.529297 800.689880,670.811646 
	C805.586914,668.593201 808.364502,663.491638 807.753784,658.694275 
	C807.054443,653.200623 802.929932,648.974365 796.760071,648.067688 
	C786.560303,646.568787 776.275208,645.620056 766.105042,643.956604 
	C737.865173,639.337708 711.135071,630.918640 688.774536,612.006348 
	C687.886353,611.255127 687.029297,610.464294 686.192383,609.656067 
	C685.608215,609.091919 685.083191,608.466492 683.847839,607.126892 
	C711.364258,604.185425 737.770203,606.271057 764.640991,612.396545 
	C767.543518,613.248230 769.770142,613.861084 771.998352,614.468384 
	C778.019165,616.109436 782.722229,614.777039 785.800964,610.561035 
	C788.820251,606.426453 788.945862,601.062378 785.587219,596.194458 
	C782.407410,591.585693 778.785767,587.281677 775.358398,582.843628 
z"/>
<path fill="#3B6D4A" opacity="1.000000" stroke="none" 
	d="
M977.039429,612.148926 
	C974.648804,613.291504 972.171204,614.253479 969.606201,614.820312 
	C964.473633,615.954468 959.973633,614.702454 956.876221,610.271484 
	C953.936584,606.066162 953.873108,601.403748 956.641174,597.208618 
	C960.279846,591.693970 964.422424,586.511719 968.652588,581.036865 
	C968.818420,584.962463 968.535889,589.039062 968.573242,593.112671 
	C968.640991,600.509949 973.329773,605.919495 977.039429,612.148926 
z"/>
<path fill="#386B47" opacity="1.000000" stroke="none" 
	d="
M883.990784,661.333557 
	C886.864929,663.735413 889.739014,666.137207 892.794678,668.820862 
	C891.778992,669.370422 890.182434,670.274841 889.443665,669.811523 
	C876.031921,661.400208 863.218872,663.190796 850.592102,671.602234 
	C848.459412,673.022888 845.920593,673.833984 843.181580,674.880737 
	C847.998779,670.343933 853.203674,665.852966 858.797729,661.620972 
	C860.492615,662.076355 861.796387,662.425049 863.104553,662.442627 
	C868.734985,662.518127 874.368286,662.570312 879.996948,662.455933 
	C881.335266,662.428833 882.659851,661.725708 883.990784,661.333557 
z"/>
<path fill="#3B6D4A" opacity="1.000000" stroke="none" 
	d="
M775.019287,583.082153 
	C778.785767,587.281677 782.407410,591.585693 785.587219,596.194458 
	C788.945862,601.062378 788.820251,606.426453 785.800964,610.561035 
	C782.722229,614.777039 778.019165,616.109436 771.998352,614.468384 
	C769.770142,613.861084 767.543518,613.248230 765.034363,612.377380 
	C771.640747,605.966553 774.686340,598.268433 774.207092,589.068237 
	C774.107971,587.165771 774.509460,585.237244 775.019287,583.082153 
z"/>
<path fill="#FFFFFF" opacity="1.000000" stroke="none" 
	d="
M747.902954,585.076965 
	C748.244690,585.156189 748.472534,585.326782 748.700439,585.497314 
	C748.419983,585.562683 748.139526,585.628113 747.708557,585.519897 
	C747.558044,585.346375 747.789185,585.168274 747.902954,585.076965 
z"/>
<path fill="#FDFDFD" opacity="1.000000" stroke="none" 
	d="
M444.836975,882.807983 
	C441.138367,882.347656 437.758514,882.243896 434.627136,881.308472 
	C428.082703,879.353455 424.989441,875.331299 424.613617,869.191101 
	C424.220917,862.775391 426.775116,857.770752 433.052521,855.365784 
	C438.258789,853.371216 443.915253,852.491028 449.421448,851.355713 
	C455.885925,850.022827 462.403534,848.947632 468.888550,847.762390 
	C472.001862,869.041870 464.590332,880.177551 444.836975,882.807983 
z"/>
<path fill="#FDFEFD" opacity="1.000000" stroke="none" 
	d="
M322.610107,808.208679 
	C342.198792,804.112610 355.126617,813.504517 356.544220,832.865356 
	C339.162140,832.865356 321.804626,832.865356 304.444244,832.865356 
	C304.260590,822.287109 310.756866,813.327759 322.610107,808.208679 
z"/>
<path fill="#FDFDFD" opacity="1.000000" stroke="none" 
	d="
M886.535889,872.162354 
	C883.500061,876.513245 879.634705,878.251160 874.744263,878.027100 
	C871.588928,877.882507 868.414429,878.128052 865.261841,877.955261 
	C859.262878,877.626404 854.259766,873.176636 854.180054,867.199097 
	C853.933838,848.731018 854.073975,830.257690 854.078003,811.786438 
	C854.078308,810.483582 854.191956,809.180664 854.266357,807.588928 
	C865.499146,807.588928 876.546936,807.588928 888.072937,807.588928 
	C888.072937,814.235413 888.072876,820.682922 888.072876,827.130493 
	C888.072815,839.611206 888.141541,852.092651 888.013428,864.572021 
	C887.988464,866.997925 887.196960,869.415955 886.535889,872.162354 
z"/>
<path fill="#3A6D49" opacity="1.000000" stroke="none" 
	d="
M883.800354,661.038452 
	C882.659851,661.725708 881.335266,662.428833 879.996948,662.455933 
	C874.368286,662.570312 868.734985,662.518127 863.104553,662.442627 
	C861.796387,662.425049 860.492615,662.076355 859.111755,661.518982 
	C868.511230,651.345276 872.684509,651.274841 883.800354,661.038452 
z"/>
</svg>