<svg width="104" height="60" viewBox="0 0 104 60" fill="none" xmlns="http://www.w3.org/2000/svg">
<g clip-path="url(#clip0_1144_1183)">
<path opacity="0.93" d="M0.29322 38.8262V22.6997H3.70277V36.0151H10.6164V38.8262H0.29322ZM18.3233 39.0624C17.0792 39.0624 16.0083 38.8104 15.1106 38.3065C14.2182 37.7973 13.5305 37.0781 13.0475 36.1489C12.5646 35.2145 12.3231 34.1095 12.3231 32.8339C12.3231 31.5897 12.5646 30.4978 13.0475 29.5582C13.5305 28.6185 14.2103 27.8862 15.087 27.3613C15.9689 26.8363 17.0031 26.5738 18.1894 26.5738C18.9874 26.5738 19.7302 26.7024 20.4179 26.9597C21.1108 27.2116 21.7145 27.5922 22.2289 28.1014C22.7486 28.6106 23.1528 29.2511 23.4416 30.0228C23.7303 30.7892 23.8747 31.6868 23.8747 32.7157V33.637H13.6617V31.5582H20.7171C20.7171 31.0753 20.6121 30.6474 20.4021 30.2747C20.1921 29.902 19.9008 29.6107 19.5281 29.4007C19.1606 29.1855 18.7328 29.0778 18.2446 29.0778C17.7354 29.0778 17.2839 29.196 16.8902 29.4322C16.5017 29.6632 16.1973 29.9755 15.9768 30.3692C15.7563 30.7577 15.6434 31.1908 15.6382 31.6685V33.6449C15.6382 34.2434 15.7484 34.7604 15.9689 35.1961C16.1946 35.6318 16.5122 35.9678 16.9217 36.204C17.3311 36.4403 17.8167 36.5584 18.3784 36.5584C18.7511 36.5584 19.0924 36.5059 19.4021 36.4009C19.7118 36.2959 19.9769 36.1384 20.1974 35.9284C20.4179 35.7185 20.5858 35.4612 20.7013 35.1568L23.8038 35.3615C23.6463 36.1069 23.3235 36.7579 22.8353 37.3143C22.3523 37.8655 21.7276 38.296 20.9612 38.6057C20.2 38.9102 19.3207 39.0624 18.3233 39.0624ZM29.5126 39.0545C28.7409 39.0545 28.0533 38.9207 27.4496 38.6529C26.8459 38.38 26.3682 37.9784 26.0165 37.4482C25.67 36.9127 25.4968 36.246 25.4968 35.4481C25.4968 34.7762 25.6201 34.2119 25.8668 33.7551C26.1136 33.2984 26.4495 32.931 26.8747 32.6528C27.3 32.3745 27.7829 32.1645 28.3236 32.0228C28.8696 31.8811 29.4418 31.7813 30.0402 31.7236C30.7436 31.6501 31.3106 31.5819 31.741 31.5189C32.1715 31.4506 32.4838 31.3509 32.6781 31.2196C32.8723 31.0884 32.9694 30.8942 32.9694 30.6369V30.5897C32.9694 30.091 32.8119 29.7052 32.497 29.4322C32.1872 29.1592 31.7463 29.0227 31.1741 29.0227C30.5704 29.0227 30.0901 29.1566 29.7331 29.4243C29.3761 29.6868 29.1399 30.0175 29.0244 30.4165L25.922 30.1645C26.0794 29.4296 26.3892 28.7944 26.8511 28.2589C27.3131 27.7182 27.9089 27.3035 28.6386 27.0148C29.3735 26.7208 30.2239 26.5738 31.1898 26.5738C31.8618 26.5738 32.5048 26.6526 33.119 26.8101C33.7385 26.9675 34.287 27.2116 34.7648 27.5424C35.2477 27.8731 35.6283 28.2983 35.9065 28.818C36.1847 29.3324 36.3239 29.9493 36.3239 30.6684V38.8262H33.1427V37.149H33.0482C32.8539 37.5269 32.5941 37.8603 32.2686 38.149C31.9431 38.4325 31.5521 38.6556 31.0954 38.8183C30.6386 38.9758 30.1111 39.0545 29.5126 39.0545ZM30.4733 36.7395C30.9667 36.7395 31.4024 36.6424 31.7804 36.4481C32.1584 36.2487 32.455 35.9809 32.6702 35.645C32.8854 35.309 32.993 34.9284 32.993 34.5032V33.2197C32.8881 33.2879 32.7437 33.3509 32.56 33.4087C32.3815 33.4612 32.1794 33.511 31.9536 33.5583C31.7279 33.6003 31.5022 33.6397 31.2765 33.6764C31.0507 33.7079 30.846 33.7368 30.6623 33.763C30.2686 33.8208 29.9247 33.9126 29.6307 34.0386C29.3368 34.1646 29.1084 34.3352 28.9457 34.5504C28.7829 34.7604 28.7016 35.0229 28.7016 35.3379C28.7016 35.7946 28.8669 36.1437 29.1977 36.3852C29.5336 36.6214 29.9588 36.7395 30.4733 36.7395ZM45.4304 26.7313V29.2511H37.9656V26.7313H45.4304ZM39.6744 38.8262V25.8573C39.6744 24.9806 39.845 24.2535 40.1862 23.6761C40.5326 23.0987 41.0051 22.6656 41.6035 22.3768C42.202 22.0881 42.8818 21.9438 43.643 21.9438C44.1574 21.9438 44.6273 21.9831 45.0525 22.0619C45.4829 22.1406 45.8032 22.2115 46.0131 22.2745L45.4147 24.7942C45.2835 24.7522 45.1207 24.7129 44.9265 24.6761C44.7375 24.6394 44.5433 24.621 44.3438 24.621C43.8503 24.621 43.5065 24.7365 43.3123 24.9675C43.118 25.1932 43.0209 25.5108 43.0209 25.9203V38.8262H39.6744ZM58.236 27.9124C58.1257 27.5292 57.9709 27.1906 57.7714 26.8967C57.5719 26.5974 57.3278 26.3455 57.0391 26.1407C56.7556 25.9308 56.4301 25.7707 56.0627 25.6604C55.7004 25.5502 55.2989 25.4951 54.8579 25.4951C54.0337 25.4951 53.3093 25.6998 52.6846 26.1092C52.0652 26.5187 51.5822 27.1145 51.2357 27.8967C50.8893 28.6736 50.716 29.6238 50.716 30.7472C50.716 31.8706 50.8866 32.826 51.2279 33.6134C51.5691 34.4008 52.052 35.0019 52.6767 35.4166C53.3014 35.8261 54.039 36.0308 54.8894 36.0308C55.6611 36.0308 56.3199 35.8943 56.8658 35.6213C57.417 35.3431 57.837 34.952 58.1257 34.4481C58.4197 33.9441 58.5667 33.3483 58.5667 32.6606L59.2596 32.763H55.102V30.196H61.8502V32.2275C61.8502 33.6449 61.551 34.8628 60.9526 35.8812C60.3541 36.8944 59.53 37.6765 58.4801 38.2277C57.4302 38.7737 56.228 39.0467 54.8736 39.0467C53.3618 39.0467 52.0337 38.7133 50.8893 38.0466C49.7449 37.3747 48.8525 36.4219 48.212 35.1883C47.5768 33.9494 47.2592 32.4795 47.2592 30.7787C47.2592 29.4716 47.4482 28.3062 47.8262 27.2825C48.2094 26.2536 48.7448 25.3822 49.4325 24.6683C50.1202 23.9543 50.9208 23.411 51.8342 23.0383C52.7476 22.6656 53.7371 22.4792 54.8028 22.4792C55.7162 22.4792 56.5666 22.6131 57.354 22.8808C58.1415 23.1433 58.8396 23.516 59.4486 23.9989C60.0628 24.4819 60.5641 25.0567 60.9526 25.7234C61.341 26.3848 61.5904 27.1145 61.7006 27.9124H58.236ZM64.3483 38.8262V26.7313H67.6004V28.8416H67.7264C67.9469 28.0909 68.317 27.524 68.8367 27.1408C69.3564 26.7523 69.9548 26.5581 70.632 26.5581C70.8 26.5581 70.9811 26.5686 71.1753 26.5896C71.3696 26.6106 71.5402 26.6394 71.6872 26.6762V29.6527C71.5297 29.6054 71.3118 29.5634 71.0336 29.5267C70.7554 29.4899 70.5008 29.4716 70.2698 29.4716C69.7763 29.4716 69.3354 29.5792 68.9469 29.7944C68.5637 30.0044 68.2592 30.2983 68.0335 30.6763C67.813 31.0543 67.7028 31.49 67.7028 31.9834V38.8262H64.3483Z" fill="#FFFEEF"/>
<path d="M88.7245 39L85.4331 26.9051H88.8269L90.701 35.0314H90.8112L92.764 26.9051H96.0948L98.0791 34.9841H98.1815L100.024 26.9051H103.41L100.126 39H96.5752L94.4964 31.3935H94.3467L92.2679 39H88.7245Z" fill="#FFFEEF"/>
<path d="M77.9332 1.23144C78.0674 1.08394 78.2567 1 78.455 1H78.4902C78.6885 1 78.8778 1.08393 79.0121 1.23142C81.3934 3.84734 82.1335 6.67932 82.3211 8.79366C82.3655 9.29333 82.379 9.75308 82.3764 10.1602C83.4282 9.13961 84.5756 8.2071 85.5614 7.48741C86.2689 6.971 86.9091 6.55243 87.3872 6.28388C87.6198 6.15324 87.8439 6.04097 88.0305 5.9761C88.1109 5.94818 88.2568 5.90222 88.4197 5.90481C88.5022 5.90612 88.6635 5.9203 88.8275 6.02494C89.0238 6.15017 89.1403 6.35117 89.1687 6.56171C89.499 9.00919 88.2427 11.6047 87.0855 13.4612C86.7177 14.0514 86.3482 14.5847 86.0211 15.0359C87.1294 14.8622 88.2309 14.812 89.1416 14.8435C89.8528 14.8681 90.4907 14.9438 90.9439 15.0685C91.1511 15.1256 91.414 15.2169 91.6145 15.3843C91.7203 15.4725 91.8736 15.636 91.927 15.8893C91.9861 16.1696 91.893 16.411 91.7756 16.5721C90.2513 18.6628 87.8399 19.5288 86.0235 19.9239C85.7692 19.9792 85.5239 20.0259 85.2914 20.0655C85.9231 20.4797 86.5991 20.9667 87.2039 21.4444C87.8347 21.9428 88.4182 22.4548 88.79 22.8769C88.96 23.0699 89.1583 23.3229 89.2477 23.5931C89.2938 23.7324 89.3487 23.9894 89.2273 24.2636C89.0934 24.566 88.8336 24.6981 88.644 24.7478C86.2332 25.379 83.9306 24.6188 82.0929 23.5923C80.9566 22.9577 79.9598 22.1994 79.1817 21.5514V25.7222C79.1817 26.118 79.1817 30.0839 78.4725 28.4001C77.7636 30.0839 77.7636 26.118 77.7636 25.7222V21.544C76.9456 22.2201 75.8849 23.0233 74.7 23.6873C72.8309 24.7347 70.4924 25.5269 68.2449 24.732C68.0463 24.6617 67.8166 24.5055 67.7068 24.2154C67.6082 23.9548 67.6573 23.7148 67.7041 23.5728C67.794 23.2998 67.9905 23.0449 68.1637 22.8469C68.538 22.4191 69.1225 21.9085 69.7523 21.4147C70.3504 20.9458 71.0175 20.4703 71.6421 20.0647C71.4131 20.0255 71.1718 19.9795 70.9218 19.9251C69.1054 19.5299 66.694 18.6639 65.1697 16.5731C65.0522 16.4119 64.9592 16.1706 65.0183 15.8903C65.0716 15.637 65.225 15.4735 65.3307 15.3852C65.5312 15.2179 65.7941 15.1266 66.0014 15.0695C66.4545 14.9447 67.0925 14.869 67.8037 14.8444C68.7144 14.8129 69.8159 14.8631 70.9242 15.0368C70.5971 14.5856 70.2276 14.0522 69.8597 13.4619C68.7025 11.6053 67.4463 9.00966 67.7765 6.56205C67.8049 6.35152 67.9214 6.15052 68.1177 6.02529C68.2818 5.92063 68.443 5.90645 68.5256 5.90514C68.6885 5.90255 68.8344 5.94852 68.9147 5.97644C69.1014 6.04131 69.3255 6.15359 69.5581 6.28423C70.0362 6.55281 70.6764 6.9714 71.3838 7.48785C72.3697 8.20759 73.5171 9.14015 74.5689 10.1608C74.5662 9.75365 74.5798 9.29386 74.6241 8.79414C74.8118 6.67968 75.5518 3.84753 77.9332 1.23144Z" stroke="#FFFEEF" stroke-width="0.940605" stroke-linecap="round" stroke-linejoin="round"/>
<mask id="path-4-inside-1_1144_1183" fill="white">
<path d="M74 28.5559C74 27.6966 74.6966 27 75.5559 27H81.4441C82.3034 27 83 27.6966 83 28.5559V35.1103C83 37.2585 81.2585 39 79.1103 39H77.8897C75.7415 39 74 37.2585 74 35.1103V28.5559Z"/>
</mask>
<path d="M74 28.5559C74 27.6966 74.6966 27 75.5559 27H81.4441C82.3034 27 83 27.6966 83 28.5559V35.1103C83 37.2585 81.2585 39 79.1103 39H77.8897C75.7415 39 74 37.2585 74 35.1103V28.5559Z" fill="#FFFEEF" stroke="#FFFEEF" stroke-width="5.05665" mask="url(#path-4-inside-1_1144_1183)"/>
</g>
<defs>
<clipPath id="clip0_1144_1183">
<rect width="104" height="60" fill="white"/>
</clipPath>
</defs>
</svg>
