<svg width="143" height="62" viewBox="0 0 143 62" fill="none" xmlns="http://www.w3.org/2000/svg">
<g clip-path="url(#clip0_1132_959)">
<g filter="url(#filter0_b_1132_959)">
<path fill-rule="evenodd" clip-rule="evenodd" d="M108.404 2.37955C108.626 2.13765 108.939 2 109.267 2H109.326C109.654 2 109.967 2.13764 110.189 2.37952C114.13 6.66946 115.355 11.3137 115.666 14.7811C115.739 15.6005 115.761 16.3545 115.757 17.0222C117.498 15.3484 119.397 13.8192 121.028 12.6389C122.199 11.7921 123.258 11.1056 124.05 10.6652C124.434 10.451 124.805 10.2669 125.114 10.1605C125.247 10.1147 125.489 10.0393 125.758 10.0436C125.895 10.0457 126.162 10.069 126.433 10.2406C126.758 10.4459 126.951 10.7756 126.998 11.1208C127.544 15.1346 125.465 19.391 123.55 22.4355C122.942 23.4034 122.33 24.2781 121.789 25.0179C123.623 24.7331 125.446 24.6508 126.953 24.7024C128.13 24.7427 129.186 24.8669 129.936 25.0715C130.279 25.1651 130.714 25.3148 131.046 25.5892C131.221 25.734 131.474 26.0022 131.563 26.4175C131.66 26.8772 131.506 27.273 131.312 27.5373C128.789 30.9659 124.799 32.386 121.793 33.034C121.372 33.1247 120.966 33.2012 120.581 33.2663C121.627 33.9454 122.745 34.7441 123.746 35.5276C124.79 36.3449 125.756 37.1844 126.371 37.8767C126.653 38.1932 126.981 38.6081 127.129 39.0513C127.205 39.2797 127.296 39.7011 127.095 40.1508C126.873 40.6468 126.443 40.8634 126.13 40.9449C122.14 41.98 118.329 40.7333 115.288 39.05C113.407 38.0092 111.758 36.7656 110.47 35.7029V42.5428C110.47 43.1918 110.47 49.6957 109.296 46.9344C108.123 49.6957 108.123 43.1918 108.123 42.5428V35.6908C106.769 36.7996 105.014 38.1167 103.053 39.2057C99.9599 40.9234 96.0897 42.2226 92.3702 40.9189C92.0416 40.8037 91.6614 40.5475 91.4797 40.0717C91.3166 39.6444 91.3978 39.2509 91.4752 39.018C91.6241 38.5702 91.9492 38.1522 92.2359 37.8275C92.8554 37.1259 93.8226 36.2886 94.8649 35.4788C95.8548 34.7098 96.9587 33.93 97.9925 33.2649C97.6135 33.2006 97.2141 33.1251 96.8003 33.0359C93.7943 32.3879 89.8036 30.9676 87.281 27.5388C87.0866 27.2746 86.9327 26.8788 87.0304 26.4191C87.1187 26.0038 87.3725 25.7356 87.5475 25.5908C87.8793 25.3164 88.3144 25.1666 88.6574 25.0731C89.4073 24.8684 90.4631 24.7443 91.6401 24.7039C93.1472 24.6523 94.9702 24.7346 96.8044 25.0195C96.2631 24.2796 95.6515 23.4048 95.0427 22.4367C93.1276 19.392 91.0487 15.1353 91.5952 11.1214C91.6422 10.7762 91.8349 10.4465 92.1598 10.2411C92.4313 10.0695 92.6981 10.0463 92.8348 10.0441C93.1043 10.0399 93.3459 10.1153 93.4788 10.161C93.7878 10.2674 94.1586 10.4516 94.5435 10.6658C95.3347 11.1062 96.3943 11.7927 97.565 12.6397C99.1965 13.82 101.095 15.3493 102.836 17.0232C102.832 16.3554 102.854 15.6014 102.928 14.7819C103.238 11.3143 104.463 6.66976 108.404 2.37955ZM109.297 4.93971C106.45 8.4702 105.519 12.1552 105.265 14.9919C105.126 16.5436 105.19 17.8402 105.257 18.7234C105.269 18.873 105.281 19.0242 105.294 19.1672C105.314 19.4105 105.333 19.63 105.339 19.7772C105.342 19.8441 105.344 19.9252 105.34 20.0077C105.338 20.0641 105.331 20.2321 105.268 20.4177C105.237 20.5098 105.158 20.7115 104.968 20.8982C104.738 21.1249 104.402 21.2682 104.03 21.2361C103.722 21.2095 103.51 21.0719 103.418 21.004C103.314 20.9278 103.242 20.8497 103.201 20.8032C101.177 18.4638 98.4435 16.1748 96.1907 14.545C95.3009 13.9013 94.5027 13.3724 93.8694 12.9911C94.0355 15.7163 95.4461 18.6682 97.0285 21.184C97.9505 22.6499 98.8857 23.899 99.5618 24.7825C99.6458 24.8922 99.7274 24.9984 99.8055 25.0999C100.032 25.3947 100.228 25.6498 100.362 25.8351C100.437 25.9403 100.556 26.1073 100.634 26.2699C100.656 26.3168 100.694 26.4011 100.723 26.5085C100.743 26.5837 100.81 26.8446 100.718 27.1612C100.666 27.3436 100.559 27.5471 100.37 27.7165C100.184 27.8836 99.9783 27.9633 99.8104 27.997C99.5163 28.0559 99.282 27.9868 99.2111 27.965C96.777 27.2149 93.9017 26.9783 91.7204 27.053C91.0765 27.075 90.5177 27.1235 90.0652 27.1872C92.0743 29.2076 94.86 30.2134 97.2942 30.7381C98.6853 31.038 99.9064 31.1696 100.733 31.2579C100.759 31.2607 100.785 31.2635 100.811 31.2663C101.158 31.3031 101.518 31.3415 101.747 31.3938C101.811 31.4084 101.937 31.4394 102.071 31.5014C102.137 31.5321 102.26 31.5949 102.386 31.7078C102.512 31.8209 102.715 32.0536 102.772 32.4186C102.832 32.8043 102.694 33.1129 102.566 33.2942C102.45 33.4596 102.318 33.5585 102.25 33.6051C102.112 33.6997 101.976 33.7532 101.911 33.7777C101.383 33.9758 100.503 34.4538 99.4534 35.1196C98.4247 35.772 97.3003 36.5615 96.3035 37.3359C95.5158 37.9479 94.8389 38.5265 94.3554 39.0049C96.7903 39.3922 99.4238 38.5336 101.915 37.1502C104.721 35.5921 107.1 33.5062 108.425 32.3446C108.458 32.315 108.491 32.2861 108.524 32.2577C108.966 31.87 109.627 31.87 110.069 32.2577C110.151 32.3296 110.237 32.4051 110.326 32.4836C111.666 33.6611 113.81 35.5463 116.423 36.9928C118.796 38.3059 121.436 39.19 124.115 38.9235C123.643 38.4722 123.017 37.9402 122.301 37.3794C121.3 36.5962 120.172 35.7945 119.14 35.1322C118.086 34.4556 117.206 33.9723 116.683 33.7757C116.617 33.7512 116.481 33.6977 116.343 33.6032C116.275 33.5565 116.143 33.4577 116.027 33.2922C115.899 33.1109 115.761 32.8024 115.821 32.4166C115.878 32.0516 116.081 31.8189 116.207 31.7058C116.333 31.593 116.456 31.5301 116.522 31.4994C116.656 31.4374 116.782 31.4065 116.846 31.3918C117.075 31.3395 117.435 31.3011 117.782 31.2643C117.808 31.2615 117.834 31.2587 117.86 31.2559C118.687 31.1676 119.908 31.036 121.299 30.7362C123.733 30.2115 126.519 29.2058 128.528 27.1857C128.075 27.122 127.516 27.0735 126.873 27.0515C124.691 26.9767 121.816 27.2134 119.382 27.9634C119.311 27.9852 119.077 28.0544 118.783 27.9954C118.615 27.9617 118.409 27.882 118.223 27.7149C118.034 27.5456 117.928 27.3421 117.875 27.1596C117.784 26.843 117.85 26.582 117.87 26.5069C117.899 26.3995 117.937 26.3151 117.959 26.2683C118.037 26.1057 118.156 25.9387 118.231 25.8335C118.365 25.6482 118.561 25.3931 118.788 25.0983C118.866 24.9968 118.947 24.8906 119.031 24.7809C119.707 23.8975 120.643 22.6486 121.565 21.1827C123.147 18.6671 124.557 15.7155 124.724 12.9905C124.09 13.3718 123.292 13.9006 122.402 14.5443C120.15 16.174 117.416 18.4629 115.392 20.8021C115.351 20.8486 115.279 20.9266 115.175 21.0029C115.083 21.0708 114.871 21.2083 114.563 21.235C114.191 21.2671 113.855 21.1238 113.625 20.8971C113.435 20.7104 113.356 20.5087 113.325 20.4166C113.262 20.231 113.255 20.063 113.253 20.0066C113.249 19.9241 113.251 19.8429 113.254 19.7761C113.261 19.6289 113.279 19.4094 113.3 19.1661C113.312 19.0231 113.324 18.8719 113.336 18.7223C113.403 17.8392 113.467 16.5427 113.328 14.9911C113.074 12.1546 112.143 8.46994 109.297 4.93971ZM125.907 12.3742C125.907 12.3742 125.902 12.3758 125.894 12.3778C125.903 12.3749 125.907 12.3742 125.907 12.3742ZM92.6861 12.3747C92.6861 12.3747 92.6902 12.3755 92.6994 12.3784C92.6909 12.3764 92.6861 12.3747 92.6861 12.3747Z" fill="#025829" fill-opacity="0.8"/>
</g>
<mask id="path-2-inside-1_1132_959" fill="white">
<path d="M103.343 46.3432C103.343 45.2218 104.252 44.3127 105.373 44.3127H113.049C114.17 44.3127 115.079 45.2218 115.079 46.3432V56.4957C115.079 59.2991 112.806 61.5718 110.003 61.5718H108.419C105.616 61.5718 103.343 59.2991 103.343 56.4957V46.3432Z"/>
</mask>
<path d="M103.343 46.3432C103.343 45.2218 104.252 44.3127 105.373 44.3127H113.049C114.17 44.3127 115.079 45.2218 115.079 46.3432V56.4957C115.079 59.2991 112.806 61.5718 110.003 61.5718H108.419C105.616 61.5718 103.343 59.2991 103.343 56.4957V46.3432Z" stroke="#373E3A" stroke-width="6.59901" mask="url(#path-2-inside-1_1132_959)"/>
<path d="M122.579 61L117.807 44.1102H121.864L124.833 55.9858H124.987L128.022 44.1102H132.035L135.07 55.9199H135.235L138.16 44.1102H142.229L137.445 61H133.3L130.133 49.5862H129.902L126.735 61H122.579Z" fill="#373E3A"/>
<path opacity="0.93" d="M1.22118 61V38.4803H5.30068V57.5803H15.219V61H1.22118ZM26.061 61.3299C24.3677 61.3299 22.9052 60.978 21.6736 60.2743C20.4494 59.5632 19.5074 58.5589 18.8477 57.2614C18.1879 55.9565 17.8581 54.4208 17.8581 52.6541C17.8581 50.9167 18.1879 49.3919 18.8477 48.0798C19.5148 46.7602 20.4458 45.734 21.6407 45.0009C22.8356 44.2605 24.2394 43.8903 25.8521 43.8903C26.8931 43.8903 27.8754 44.0589 28.799 44.3961C29.73 44.726 30.551 45.2391 31.2621 45.9356C31.9805 46.632 32.545 47.519 32.9555 48.5966C33.366 49.6668 33.5713 50.9424 33.5713 52.4232V53.6437H19.7274V50.9607H29.7557C29.7483 50.1983 29.5834 49.5202 29.2609 48.9264C28.9383 48.3253 28.4875 47.8525 27.9083 47.508C27.3366 47.1634 26.6695 46.9912 25.9071 46.9912C25.0934 46.9912 24.3786 47.1891 23.7629 47.5849C23.1471 47.9735 22.6669 48.4866 22.3224 49.1244C21.9852 49.7548 21.8129 50.4476 21.8056 51.2026V53.5447C21.8056 54.5271 21.9852 55.3701 22.3444 56.0738C22.7036 56.7702 23.2057 57.3054 23.8508 57.6792C24.4959 58.0458 25.251 58.229 26.116 58.229C26.6951 58.229 27.2193 58.1484 27.6884 57.9871C28.1576 57.8185 28.5644 57.5729 28.909 57.2504C29.2535 56.9278 29.5138 56.5283 29.6897 56.0518L33.4063 56.4697C33.1717 57.452 32.7246 58.3097 32.0648 59.0427C31.4124 59.7685 30.5767 60.3329 29.5577 60.7361C28.5388 61.132 27.3732 61.3299 26.061 61.3299ZM41.799 61.3409C40.7287 61.3409 39.7647 61.1503 38.907 60.7691C38.0567 60.3806 37.3823 59.8088 36.8838 59.0537C36.3926 58.2987 36.1471 57.3677 36.1471 56.2607C36.1471 55.3078 36.323 54.5197 36.6749 53.8966C37.0267 53.2735 37.5069 52.775 38.1153 52.4012C38.7238 52.0273 39.4092 51.7451 40.1716 51.5545C40.9413 51.3566 41.7367 51.2136 42.5577 51.1256C43.5473 51.023 44.35 50.9314 44.9658 50.8507C45.5816 50.7628 46.0288 50.6308 46.3073 50.4549C46.5932 50.2716 46.7362 49.9894 46.7362 49.6082V49.5422C46.7362 48.7139 46.4906 48.0724 45.9994 47.6179C45.5083 47.1634 44.8009 46.9362 43.8772 46.9362C42.9022 46.9362 42.1289 47.1488 41.5571 47.5739C40.9926 47.9991 40.6114 48.5013 40.4135 49.0804L36.6969 48.5526C36.9901 47.5263 37.4739 46.6686 38.1483 45.9795C38.8227 45.2831 39.6474 44.7626 40.6224 44.4181C41.5974 44.0662 42.675 43.8903 43.8552 43.8903C44.6689 43.8903 45.479 43.9856 46.2853 44.1762C47.0917 44.3668 47.8284 44.682 48.4955 45.1218C49.1626 45.5544 49.6977 46.1445 50.1009 46.8922C50.5114 47.6399 50.7167 48.5746 50.7167 49.6962V61H46.8901V58.6799H46.7582C46.5162 59.149 46.1754 59.5889 45.7355 59.9994C45.303 60.4026 44.7569 60.7288 44.0971 60.978C43.4447 61.2199 42.6787 61.3409 41.799 61.3409ZM42.8326 58.416C43.6316 58.416 44.3244 58.2583 44.9108 57.9431C45.4973 57.6206 45.9481 57.1954 46.2633 56.6676C46.5859 56.1398 46.7472 55.5643 46.7472 54.9412V52.951C46.6225 53.0536 46.4099 53.1489 46.1094 53.2369C45.8162 53.3248 45.4863 53.4018 45.1198 53.4678C44.7532 53.5338 44.3904 53.5924 44.0312 53.6437C43.672 53.695 43.3604 53.739 43.0965 53.7757C42.5027 53.8563 41.9712 53.9883 41.5021 54.1715C41.0329 54.3548 40.6627 54.6114 40.3915 54.9412C40.1203 55.2638 39.9846 55.6816 39.9846 56.1948C39.9846 56.9278 40.2522 57.4813 40.7874 57.8552C41.3225 58.229 42.0042 58.416 42.8326 58.416ZM63.2741 44.1102V47.1891H53.2897V44.1102H63.2741ZM55.7858 61V42.5158C55.7858 41.3796 56.0204 40.4339 56.4896 39.6789C56.9661 38.9238 57.6038 38.3593 58.4029 37.9855C59.2019 37.6116 60.0889 37.4247 61.0639 37.4247C61.753 37.4247 62.3651 37.4797 62.9002 37.5896C63.4353 37.6996 63.8312 37.7985 64.0878 37.8865L63.2961 40.9654C63.1275 40.9141 62.9149 40.8628 62.6583 40.8114C62.4017 40.7528 62.1158 40.7235 61.8006 40.7235C61.0602 40.7235 60.5361 40.9031 60.2282 41.2623C59.9276 41.6141 59.7774 42.12 59.7774 42.7797V61H55.7858ZM81.6538 45.6716C81.4705 45.0779 81.2176 44.5464 80.8951 44.0772C80.5799 43.6007 80.1987 43.1939 79.7515 42.8567C79.3117 42.5195 78.8058 42.2666 78.2341 42.098C77.6623 41.922 77.0392 41.8341 76.3647 41.8341C75.1552 41.8341 74.0776 42.1383 73.1319 42.7467C72.1863 43.3552 71.4422 44.2495 70.8998 45.4297C70.3646 46.6026 70.0971 48.0321 70.0971 49.7182C70.0971 51.4189 70.3646 52.8593 70.8998 54.0396C71.4349 55.2198 72.179 56.1178 73.1319 56.7336C74.0849 57.342 75.1918 57.6462 76.4527 57.6462C77.5963 57.6462 78.5859 57.4263 79.4216 56.9865C80.2646 56.5466 80.9134 55.9235 81.3679 55.1172C81.8224 54.3035 82.0497 53.3505 82.0497 52.2582L82.9733 52.4012H76.8596V49.2123H85.9972V51.9173C85.9972 53.8453 85.5867 55.513 84.7657 56.9205C83.9446 58.328 82.8157 59.4129 81.3789 60.1753C79.9421 60.9304 78.2927 61.3079 76.4307 61.3079C74.3562 61.3079 72.5345 60.8424 70.9657 59.9114C69.4043 58.9731 68.1838 57.6426 67.3041 55.9199C66.4317 54.1898 65.9956 52.1373 65.9956 49.7621C65.9956 47.9441 66.2521 46.3204 66.7653 44.8909C67.2858 43.4615 68.0115 42.2482 68.9425 41.2513C69.8735 40.247 70.9657 39.4846 72.2193 38.9641C73.4728 38.4363 74.8363 38.1724 76.3098 38.1724C77.556 38.1724 78.7179 38.3557 79.7955 38.7222C80.8731 39.0814 81.8297 39.5946 82.6654 40.2616C83.5084 40.9287 84.2012 41.7204 84.7437 42.6368C85.2861 43.5531 85.6417 44.5647 85.8103 45.6716H81.6538ZM89.7661 61V44.1102H93.6256V46.9252H93.8016C94.1095 45.9502 94.6373 45.1988 95.385 44.671C96.14 44.1359 97.0014 43.8683 97.969 43.8683C98.189 43.8683 98.4345 43.8793 98.7058 43.9013C98.9843 43.916 99.2152 43.9416 99.3985 43.9783V47.6399C99.2299 47.5813 98.9623 47.53 98.5958 47.486C98.2366 47.4347 97.8884 47.409 97.5512 47.409C96.8255 47.409 96.173 47.5666 95.5939 47.8818C95.0221 48.1897 94.5713 48.6186 94.2414 49.1684C93.9115 49.7182 93.7466 50.3523 93.7466 51.0707V61H89.7661Z" fill="#373E3A"/>
</g>
<defs>
<filter id="filter0_b_1132_959" x="79.6826" y="-5.31752" width="59.2278" height="60.2489" filterUnits="userSpaceOnUse" color-interpolation-filters="sRGB">
<feFlood flood-opacity="0" result="BackgroundImageFix"/>
<feGaussianBlur in="BackgroundImageFix" stdDeviation="3.65876"/>
<feComposite in2="SourceAlpha" operator="in" result="effect1_backgroundBlur_1132_959"/>
<feBlend mode="normal" in="SourceGraphic" in2="effect1_backgroundBlur_1132_959" result="shape"/>
</filter>
<clipPath id="clip0_1132_959">
<rect width="143" height="62" fill="white"/>
</clipPath>
</defs>
</svg>
