<svg width="28" height="23" viewBox="0 0 28 23" fill="none" xmlns="http://www.w3.org/2000/svg">
<path d="M28 2.70122C28 1.20998 26.7755 0.00109863 25.265 0.00109863H2.73504C1.22452 0.00109863 0 1.20998 0 2.70122V20.301C0 21.7922 1.22452 23.0011 2.73504 23.0011H25.265C26.7755 23.0011 28 21.7922 28 20.301V2.70122ZM2.7497 2.15888H25.2864C25.588 2.15888 25.8309 2.39637 25.8309 2.69417V2.7176L14.4043 13.9995C14.2649 14.1371 14.1028 14.1577 14.0182 14.1577C13.9336 14.1577 13.7709 14.1371 13.6315 13.9995L2.20225 2.71606V2.69417C2.20225 2.39637 2.44807 2.15888 2.7497 2.15888ZM25.2864 20.8433H2.7497C2.44807 20.8433 2.20225 20.5967 2.20225 20.2989V5.77089L12.0846 15.5269C12.6012 16.0369 13.2882 16.3177 14.0187 16.3177C14.7493 16.3177 15.4349 16.0368 15.9514 15.5268L25.8309 5.77241V20.2989C25.8309 20.5967 25.588 20.8433 25.2864 20.8433Z" fill="#025829"/>
</svg>
