<svg width="37" height="36" viewBox="0 0 37 36" fill="none" xmlns="http://www.w3.org/2000/svg">
<path d="M36.3827 30.4662C35.8435 28.1642 34.8442 25.9899 33.4425 24.0691C32.0407 22.1482 30.2645 20.519 28.2164 19.2756C29.6021 17.4991 30.4535 15.3781 30.6744 13.1522C30.8953 10.9262 30.4769 8.68406 29.4664 6.67902C28.456 4.67398 26.8938 2.98597 24.9563 1.80572C23.0188 0.625461 20.7833 0 18.5024 0C16.2214 0 13.986 0.625461 12.0485 1.80572C10.111 2.98597 8.54882 4.67398 7.53837 6.67902C6.52792 8.68406 6.1095 10.9262 6.33038 13.1522C6.55127 15.3781 7.40266 17.4991 8.78836 19.2756C6.73852 20.5169 4.96073 22.1453 3.5583 24.0661C2.15587 25.987 1.15677 28.1619 0.619061 30.4647C0.461901 31.1288 0.460309 31.8193 0.614405 32.4841C0.768501 33.149 1.07428 33.7709 1.50876 34.3033C1.93581 34.8335 2.48008 35.2617 3.10053 35.5556C3.72098 35.8496 4.4014 36.0015 5.09047 36H31.9036C32.5927 36.0015 33.2731 35.8496 33.8936 35.5556C34.514 35.2617 35.0583 34.8335 35.4853 34.3033C35.9211 33.7719 36.2283 33.1504 36.3837 32.4858C36.5391 31.8212 36.5388 31.1306 36.3827 30.4662ZM18.497 3.02483C20.3111 3.02483 22.0845 3.55228 23.5928 4.54047C25.1011 5.52865 26.2768 6.9332 26.971 8.5765C27.6652 10.2198 27.8468 12.028 27.4929 13.7725C27.139 15.5171 26.2655 17.1195 24.9827 18.3772C23.7 19.635 22.0656 20.4915 20.2864 20.8385C18.5072 21.1855 16.663 21.0074 14.987 20.3267C13.311 19.646 11.8786 18.4934 10.8707 17.0144C9.86286 15.5355 9.32493 13.7967 9.32493 12.0181C9.32736 9.63364 10.2945 7.34756 12.0141 5.66152C13.7336 3.97548 16.0652 3.02721 18.497 3.02483ZM33.0945 32.4372C32.9532 32.6143 32.7724 32.7573 32.566 32.8553C32.3595 32.9532 32.1329 33.0035 31.9036 33.0022H5.09047C4.86114 33.0035 4.63456 32.9532 4.42813 32.8553C4.2217 32.7573 4.04091 32.6143 3.89962 32.4372C3.75176 32.2564 3.64747 32.0453 3.59453 31.8195C3.54159 31.5937 3.54137 31.3591 3.59388 31.1332C4.0684 29.1025 4.97369 27.1926 6.25082 25.5277C7.52796 23.8628 9.14833 22.4802 11.0065 21.4699C13.1462 23.1159 15.7873 24.0105 18.507 24.0105C21.2267 24.0105 23.8677 23.1159 26.0075 21.4699C27.8615 22.4843 29.4778 23.8689 30.7517 25.5343C32.0257 27.1996 32.929 29.1085 33.4033 31.1377C33.4549 31.3631 33.4539 31.597 33.4004 31.822C33.347 32.047 33.2424 32.2573 33.0945 32.4372Z" fill="#025829"/>
</svg>
