<svg width="28" height="30" viewBox="0 0 28 30" fill="none" xmlns="http://www.w3.org/2000/svg">
<path d="M27.8256 11.5192L26.7696 4.80805C26.7232 4.51295 26.5703 4.24384 26.3387 4.04939C26.107 3.85494 25.8118 3.74798 25.5065 3.74787C18.517 3.74787 14.9347 0.392307 14.904 0.363552C14.6644 0.130699 14.3404 0 14.0027 0C13.6649 0 13.3409 0.130699 13.1013 0.363552C13.0655 0.392307 9.48321 3.74787 2.49373 3.74787C2.18841 3.74798 1.89322 3.85494 1.66154 4.04939C1.42986 4.24384 1.27699 4.51295 1.23059 4.80805L0.174556 11.5192C-0.299101 14.5678 0.196697 17.6851 1.59482 20.449C2.99294 23.2129 5.22586 25.4899 7.99122 26.9718L13.3864 29.8472C13.5743 29.9475 13.7848 30 13.9988 30C14.2128 30 14.4234 29.9475 14.6112 29.8472L20.0064 26.9718C22.7723 25.4903 25.0057 23.2134 26.4043 20.4495C27.8029 17.6855 28.2991 14.568 27.8256 11.5192ZM18.7842 24.7714L14.0001 27.3281L9.21601 24.7764C6.91055 23.5422 5.04863 21.6451 3.88237 19.3418C2.71612 17.0385 2.30187 14.4404 2.69573 11.8992L3.59067 6.22203C7.32346 6.1403 10.947 4.97441 14.0001 2.87272C17.052 4.97414 20.6741 6.14044 24.4057 6.22328L25.3006 11.8992C25.6948 14.44 25.2812 17.0378 24.1156 19.3411C22.9501 21.6443 21.0889 23.5417 18.7842 24.7764V24.7714Z" fill="#025829"/>
<path d="M18.2102 10.3646L11.4432 16.982L9.79013 15.3655C9.67219 15.2461 9.53112 15.1508 9.37514 15.0853C9.21915 15.0198 9.05139 14.9853 8.88164 14.9838C8.71188 14.9824 8.54353 15.014 8.38641 15.0769C8.22929 15.1397 8.08654 15.2326 7.9665 15.35C7.84646 15.4673 7.75153 15.6069 7.68725 15.7606C7.62296 15.9142 7.59061 16.0789 7.59209 16.2449C7.59356 16.4109 7.62883 16.5749 7.69584 16.7274C7.76284 16.88 7.86024 17.0179 7.98235 17.1333L10.5393 19.6337C10.7791 19.8681 11.1042 19.9997 11.4432 19.9997C11.7822 19.9997 12.1073 19.8681 12.3471 19.6337L20.018 12.1324C20.2509 11.8966 20.3798 11.5808 20.3768 11.253C20.3739 10.9252 20.2395 10.6116 20.0024 10.3798C19.7654 10.1481 19.4447 10.0166 19.1095 10.0137C18.7743 10.0109 18.4514 10.1369 18.2102 10.3646Z" fill="#025829"/>
</svg>
