<svg width="31" height="35" viewBox="0 0 31 35" fill="none" xmlns="http://www.w3.org/2000/svg">
<path d="M29.8682 33.0965C29.8682 33.0348 27.4848 27.1073 27.4848 23.6744C27.5277 22.4287 27.8394 21.2071 28.3987 20.0932C29.4595 17.7255 29.9905 15.1547 29.9546 12.5605C29.9546 5.41051 24.2371 0.21167 16.3709 0.21167C9.18393 0.21167 4.3679 3.60759 2.78726 9.79433C2.21714 11.8666 2.17469 14.0487 2.66377 16.1416L0.650916 20.1426C0.410138 20.729 0.404053 21.3855 0.63392 21.9763C0.863788 22.5671 1.31201 23.0468 1.88579 23.3163C2.23098 23.4544 2.59178 23.5498 2.96014 23.6003L4.02214 28.7868C4.09156 29.2988 4.33071 29.7727 4.70132 30.1328C5.15744 30.4987 5.68127 30.7711 6.24281 30.9342C6.80434 31.0974 7.39256 31.1482 7.97375 31.0836C8.7581 30.9807 9.55159 31.189 10.1842 31.664C10.3456 31.7793 10.477 31.9318 10.567 32.1086L11.5672 34.1091C11.6325 34.2659 11.7294 34.4075 11.8519 34.5251C11.9744 34.6427 12.1198 34.7338 12.2791 34.7927C12.4384 34.8515 12.6081 34.8769 12.7776 34.8673C12.9472 34.8576 13.1129 34.813 13.2644 34.7364C13.416 34.6598 13.5501 34.5527 13.6584 34.4219C13.7667 34.2911 13.8468 34.1394 13.8939 33.9762C13.9409 33.8131 13.9537 33.6419 13.9316 33.4736C13.9095 33.3052 13.8529 33.1432 13.7653 32.9977L12.7774 31.0096C12.5118 30.4872 12.1319 30.0313 11.666 29.6759C10.5974 28.8913 9.28342 28.5146 7.9614 28.6139C7.45909 28.6886 6.94596 28.6067 6.49189 28.3793L5.25701 22.2049C5.20183 21.9195 5.04773 21.6627 4.82185 21.4797C4.59597 21.2967 4.31278 21.1993 4.02214 21.2046C3.65807 21.2193 3.2943 21.1691 2.94779 21.0564L5.12118 16.8331C5.19456 16.6723 5.23254 16.4975 5.23254 16.3207C5.23254 16.1438 5.19456 15.9691 5.12118 15.8082C4.6117 14.0371 4.6117 12.1582 5.12118 10.3871C6.49189 5.34877 10.3324 2.68143 16.3709 2.68143C22.8046 2.68143 27.4848 6.83062 27.4848 12.5605C27.5226 14.833 27.0544 17.0855 26.1141 19.1547C25.4262 20.5644 25.0513 22.1062 25.0151 23.6744C25.0151 27.5766 27.4848 33.751 27.5713 34.0103C27.6628 34.2401 27.8212 34.4371 28.0259 34.5758C28.2307 34.7145 28.4724 34.7885 28.7197 34.7883C28.8761 34.7887 29.0312 34.7593 29.1766 34.7018C29.3275 34.642 29.4651 34.5529 29.5816 34.4398C29.6981 34.3267 29.7911 34.1917 29.8553 34.0426C29.9195 33.8935 29.9537 33.7332 29.9559 33.5708C29.9581 33.4085 29.9283 33.2473 29.8682 33.0965Z" fill="#025829"/>
<path d="M16.3709 16.2651C17.735 16.2651 18.8407 15.1594 18.8407 13.7954C18.8407 12.4314 17.735 11.3256 16.3709 11.3256C15.0069 11.3256 13.9012 12.4314 13.9012 13.7954C13.9012 15.1594 15.0069 16.2651 16.3709 16.2651Z" fill="#025829"/>
<path d="M25.6326 13.4496C25.633 12.9303 25.4698 12.4241 25.1661 12.0029C24.8624 11.5816 24.4336 11.2669 23.9408 11.1033L23.348 10.9057L23.6197 10.35C23.8555 9.88536 23.9383 9.358 23.8562 8.84342C23.7742 8.32883 23.5315 7.85339 23.1628 7.48511L22.6812 7.00351C22.3139 6.63755 21.8407 6.39648 21.3287 6.31447C20.8167 6.23247 20.2919 6.31368 19.8286 6.54661L19.2606 6.81828L19.063 6.22554C18.8994 5.73269 18.5847 5.30393 18.1635 5.00022C17.7422 4.6965 17.236 4.53328 16.7167 4.53375H16.0252C15.5059 4.53328 14.9997 4.6965 14.5785 5.00022C14.1573 5.30393 13.8425 5.73269 13.6789 6.22554L13.4814 6.81828L12.9257 6.54661C12.461 6.3108 11.9336 6.228 11.419 6.31007C10.9045 6.39214 10.429 6.63486 10.0607 7.00351L9.57913 7.48511C9.21317 7.85244 8.9721 8.32564 8.8901 8.83763C8.80809 9.34962 8.8893 9.87443 9.12223 10.3377L9.3939 10.9057L8.80116 11.1033C8.30831 11.2669 7.87955 11.5816 7.57584 12.0029C7.27213 12.4241 7.1089 12.9303 7.10938 13.4496V14.1411C7.1089 14.6604 7.27213 15.1666 7.57584 15.5878C7.87955 16.009 8.30831 16.3238 8.80116 16.4874L9.3939 16.685L9.12223 17.2407C8.88642 17.7053 8.80362 18.2327 8.88569 18.7473C8.96776 19.2619 9.21048 19.7373 9.57913 20.1056L10.0607 20.5872C10.4266 20.9552 10.8991 21.1985 11.4112 21.2828C11.9232 21.367 12.4488 21.2878 12.9133 21.0564L13.4814 20.7724L13.6789 21.3652C13.8425 21.858 14.1573 22.2868 14.5785 22.5905C14.9997 22.8942 15.5059 23.0574 16.0252 23.0569H16.7167C17.236 23.0574 17.7422 22.8942 18.1635 22.5905C18.5847 22.2868 18.8994 21.858 19.063 21.3652L19.2606 20.7724L19.8163 21.0441C20.281 21.2799 20.8083 21.3627 21.3229 21.2806C21.8375 21.1986 22.3129 20.9558 22.6812 20.5872L23.1628 20.1056C23.5308 19.7397 23.7742 19.2672 23.8584 18.7551C23.9426 18.2431 23.8634 17.7175 23.6321 17.253L23.348 16.685L23.9408 16.4874C24.4336 16.3238 24.8624 16.009 25.1661 15.5878C25.4698 15.1666 25.633 14.6604 25.6326 14.1411V13.4496ZM23.1628 14.1411L21.5204 14.6845C21.342 14.7427 21.1793 14.8407 21.0445 14.9713C20.9096 15.1018 20.8064 15.2613 20.7424 15.4377C20.7066 15.5427 20.6654 15.6457 20.619 15.7465C20.54 15.9123 20.499 16.0937 20.499 16.2775C20.499 16.4612 20.54 16.6426 20.619 16.8084L21.3969 18.352L20.903 18.846L19.3594 18.068C19.1935 17.989 19.0121 17.948 18.8284 17.948C18.6447 17.948 18.4632 17.989 18.2974 18.068L17.9887 18.1915C17.8122 18.2554 17.6527 18.3587 17.5222 18.4935C17.3917 18.6283 17.2936 18.7911 17.2354 18.9695L16.692 20.6119H16.0005L15.4572 18.9695C15.399 18.7911 15.3009 18.6283 15.1703 18.4935C15.0398 18.3587 14.8803 18.2554 14.7039 18.1915L14.3952 18.068C14.2352 17.9998 14.0627 17.9662 13.8889 17.9692C13.6965 17.9666 13.5063 18.0088 13.3332 18.0927L11.7896 18.8707L11.2956 18.3767L12.0736 16.8331C12.1526 16.6673 12.1936 16.4859 12.1936 16.3021C12.1936 16.1184 12.1526 15.937 12.0736 15.7712C12.0271 15.6704 11.9859 15.5674 11.9501 15.4624C11.8862 15.286 11.7829 15.1265 11.6481 14.996C11.5133 14.8654 11.3505 14.7674 11.1721 14.7092L9.52974 14.1658V13.4743L11.1721 12.9309C11.3505 12.8727 11.5133 12.7746 11.6481 12.6441C11.7829 12.5136 11.8862 12.3541 11.9501 12.1777C11.9859 12.0727 12.0271 11.9696 12.0736 11.8689C12.1526 11.7031 12.1936 11.5217 12.1936 11.3379C12.1936 11.1542 12.1526 10.9728 12.0736 10.8069L11.2956 9.26334L11.7896 8.76939L13.3332 9.54736C13.499 9.62636 13.6804 9.66736 13.8642 9.66736C14.0479 9.66736 14.2293 9.62636 14.3952 9.54736L14.7039 9.42387C14.8803 9.35995 15.0398 9.25666 15.1703 9.12186C15.3009 8.98706 15.399 8.82428 15.4572 8.6459L16.0005 7.00351H16.692L17.2354 8.6459C17.2936 8.82428 17.3917 8.98706 17.5222 9.12186C17.6527 9.25666 17.8122 9.35995 17.9887 9.42387L18.2974 9.54736C18.4632 9.62636 18.6447 9.66736 18.8284 9.66736C19.0121 9.66736 19.1935 9.62636 19.3594 9.54736L20.903 8.76939L21.3969 9.26334L20.619 10.8069C20.54 10.9728 20.499 11.1542 20.499 11.3379C20.499 11.5217 20.54 11.7031 20.619 11.8689C20.6654 11.9696 20.7066 12.0727 20.7424 12.1777C20.8064 12.3541 20.9096 12.5136 21.0445 12.6441C21.1793 12.7746 21.342 12.8727 21.5204 12.9309L23.1628 13.4743V14.1411Z" fill="#025829"/>
</svg>
